<?xml version="1.0" encoding="UTF-8" standalone="no"?>
<svg
   width="800"
   height="900"
   clip-rule="evenodd"
   fill-rule="evenodd"
   image-rendering="optimizeQuality"
   shape-rendering="geometricPrecision"
   text-rendering="geometricPrecision"
   version="1.1"
   id="svg346"
   sodipodi:docname="logo.svg"
   inkscape:version="1.1.1 (3bf5ae0d25, 2021-09-20, custom)"
   xmlns:inkscape="http://www.inkscape.org/namespaces/inkscape"
   xmlns:sodipodi="http://sodipodi.sourceforge.net/DTD/sodipodi-0.dtd"
   xmlns="http://www.w3.org/2000/svg"
   xmlns:svg="http://www.w3.org/2000/svg">
  <defs
     id="defs350" />
  <sodipodi:namedview
     id="namedview348"
     pagecolor="#ffffff"
     bordercolor="#666666"
     borderopacity="1.0"
     inkscape:pageshadow="2"
     inkscape:pageopacity="0.0"
     inkscape:pagecheckerboard="0"
     showgrid="false"
     inkscape:zoom="0.80777778"
     inkscape:cx="399.86245"
     inkscape:cy="449.38102"
     inkscape:window-width="1920"
     inkscape:window-height="1023"
     inkscape:window-x="0"
     inkscape:window-y="29"
     inkscape:window-maximized="1"
     inkscape:current-layer="svg346" />
  <g
     transform="translate(-538,-134)"
     id="g344">
    <path
       d="m 1080.5,220.5 c -1.41,8.488 -2.58,17.154 -3.5,26 -0.86,4.781 -2.03,9.447 -3.5,14 -1,0.03 -1.66,-0.47 -2,-1.5 3.73,-16.371 4.73,-32.871 3,-49.5 v -4 c 1.07,-0.751 1.24,-1.751 0.5,-3 -0.67,1.333 -1.33,1.333 -2,0 -1.09,2.432 -1.59,2.098 -1.5,-1 1.26,-2.187 2.26,-4.52 3,-7 1.43,-2.019 2.77,-4.186 4,-6.5 -4.35,0.166 -8.69,0.833 -13,2 -9.5,4.578 -18.5,9.911 -27,16 -9.67,7.833 -19.33,15.667 -29,23.5 10.63,6.819 20.3,14.819 29,24 1.4,2.815 3.4,4.148 6,4 2.81,-7.106 5.81,-14.106 9,-21 2.65,-4.631 5.32,-9.298 8,-14 0.93,1.068 1.27,2.401 1,4 -4.27,8.207 -8.27,16.54 -12,25 -2.04,2.729 -3.71,5.729 -5,9 3.82,6.649 6.82,13.649 9,21 v 3 h -3 c -3.64,-6.943 -6.97,-13.943 -10,-21 -5.72,-8.224 -12.38,-15.724 -20,-22.5 -9.29,-3.976 -17.95,-8.976 -26,-15 -14.749,-6.183 -30.082,-10.016 -46,-11.5 -6.821,-1.155 -13.821,-1.321 -21,-0.5 -18.513,3.426 -35.846,9.926 -52,19.5 -5.791,4.734 -11.791,9.234 -18,13.5 -2.206,2.037 -4.206,4.203 -6,6.5 -16.94,14.555 -29.44,32.221 -37.5,53 -6.844,8.511 -14.678,16.011 -23.5,22.5 8.076,-0.034 15.076,-2.867 21,-8.5 -1.738,12.003 -4.405,24.003 -8,36 0.209,0.586 0.543,1.086 1,1.5 3.044,0.363 6.044,0.863 9,1.5 h 3 c 11.068,3.302 22.068,7.135 33,11.5 4.439,1.968 8.439,4.468 12,7.5 -13.992,-6.997 -28.659,-11.997 -44,-15 -4.706,-2.42 -9.706,-3.087 -15,-2 -1.956,8.079 -5.622,15.246 -11,21.5 6.658,0.5 13.325,0.666 20,0.5 h 8 c -5.667,0.667 -11.333,1.333 -17,2 -8.256,-1.404 -15.59,0.429 -22,5.5 -3.616,1.487 -7.283,2.82 -11,4 7.495,2.998 15.162,5.498 23,7.5 13.198,-2.636 26.531,-3.636 40,-3 h 10 c -9.158,0.83 -18.491,1.33 -28,1.5 -5.414,0.361 -10.748,1.194 -16,2.5 2.157,1.29 4.49,2.124 7,2.5 23.294,-1.036 23.961,1.964 2,9 -8.536,2.256 -17.203,3.756 -26,4.5 11.643,8.097 23.977,15.263 37,21.5 6.463,2.449 13.13,3.949 20,4.5 9.923,1.14 19.923,1.307 30,0.5 4.168,-2.25 8.168,-4.75 12,-7.5 l 1,1 c -5.848,4.614 -5.181,7.781 2,9.5 15.295,2.882 30.628,5.549 46,8 11.758,0.933 23.425,0.433 35,-1.5 5.1,-0.525 10.1,-1.525 15,-3 1.88,-0.271 3.213,0.396 4,2 -0.667,0 -1,0.333 -1,1 -11.224,4.324 -22.891,6.324 -35,6 -20.221,-0.61 -40.221,-3.11 -60,-7.5 -2.81,-0.906 -5.476,-2.073 -8,-3.5 -1.135,-1.588 -2.469,-1.921 -4,-1 -6.994,11.313 -14.494,22.313 -22.5,33 -5.297,6.122 -11.13,11.622 -17.5,16.5 3.094,0.652 6.094,0.318 9,-1 3.24,-2.091 6.574,-3.924 10,-5.5 0.624,0.417 0.957,1.084 1,2 -1.467,2.766 -2.3,5.766 -2.5,9 -0.667,13 -0.667,26 0,39 2.252,24.758 4.752,49.425 7.5,74 0.323,14.367 -0.177,28.701 -1.5,43 -3.784,12.664 -7.118,25.33 -10,38 2.906,-2.537 6.073,-4.704 9.5,-6.5 1.655,-1.444 2.322,-3.278 2,-5.5 3.145,0.577 4.645,2.577 4.5,6 2.043,15.631 3.709,31.297 5,47 3.72,-2.715 6.387,-1.715 8,3 1.137,5.947 3.137,11.613 6,17 2.978,10.578 5.645,21.245 8,32 6.053,16.496 11.886,32.996 17.5,49.5 -1.441,4.007 -2.274,8.174 -2.5,12.5 -1.139,3.612 -2.806,6.946 -5,10 -0.494,1.634 -0.66,3.301 -0.5,5 1.89,0.203 3.39,-0.463 4.5,-2 2.765,-3.761 5.098,-7.761 7,-12 0.333,2 0.667,4 1,6 0.383,0.556 0.883,0.889 1.5,1 2.016,2.644 4.683,3.477 8,2.5 1.679,-2.565 2.346,-5.398 2,-8.5 0.333,-1 1,-1.667 2,-2 0.667,2.333 1.333,4.667 2,7 2.06,1.311 4.226,1.311 6.5,0 1.368,-3.238 1.701,-6.572 1,-10 -1.491,-1.504 -3.324,-2.337 -5.5,-2.5 -2.982,-0.498 -5.982,-0.665 -9,-0.5 -1.086,-0.12 -1.753,-0.787 -2,-2 0.043,-0.916 0.376,-1.583 1,-2 h 11 c 2.491,-15.223 3.991,-30.556 4.5,-46 0.475,-36.358 0.142,-72.691 -1,-109 1.685,-5.541 4.518,-10.374 8.5,-14.5 -3.318,-3.314 -5.818,-7.148 -7.5,-11.5 0.668,-10.601 1.835,-21.268 3.5,-32 -1.391,-5.788 -4.058,-10.788 -8,-15 -7.053,-12.888 -17.387,-22.055 -31,-27.5 1.43,-1.44 3.097,-1.774 5,-1 4.062,3.029 8.395,5.529 13,7.5 3.494,2.677 7.494,4.51 12,5.5 7.333,0.667 14.667,0.667 22,0 4.995,-0.34 8.161,-2.84 9.5,-7.5 3.367,-3.703 7.034,-7.036 11,-10 -1.066,3.466 -2.733,6.799 -5,10 -8.137,8.291 -15.803,16.958 -23,26 -1.029,5.623 -1.529,11.29 -1.5,17 0.452,8.787 -0.881,17.287 -4,25.5 1.13,3.77 3.13,6.937 6,9.5 1.748,1.66 2.248,3.66 1.5,6 -3.888,3.56 -6.554,7.893 -8,13 -0.827,12.84 -0.66,25.507 0.5,38 1.821,34.732 0.987,69.399 -2.5,104 -0.661,4.148 -1.827,8.148 -3.5,12 2.915,1.204 5.081,3.204 6.5,6 0.499,3.652 0.665,7.318 0.5,11 h 6 c -0.189,-3.537 0.477,-6.87 2,-10 0.982,3.462 1.315,7.129 1,11 6.974,0.427 10.14,-2.906 9.5,-10 0.934,1.358 1.768,2.692 2.5,4 0.801,1.542 1.134,3.208 1,5 -1,0.333 -1.667,1 -2,2 -2.133,2.274 -4.799,3.608 -8,4 -3.475,-1.158 -6.975,-2.158 -10.5,-3 -3.204,1.259 -6.537,2.259 -10,3 -2.841,-1.449 -5.008,-0.949 -6.5,1.5 -3.333,0.333 -6.667,0.667 -10,1 -2.529,2.791 -5.529,3.624 -9,2.5 -3.81,2.838 -7.31,2.505 -10.5,-1 -0.473,-4.586 0.693,-8.752 3.5,-12.5 -1,-0.167 -2,-0.333 -3,-0.5 -20.783,2.79 -41.45,6.29 -62,10.5 -10.646,1.21 -21.313,1.543 -32,1 -18.32,-4.494 -22.654,-14.661 -13,-30.5 0.333,-1 1,-1.667 2,-2 0.667,0 1,-0.333 1,-1 0.667,0 1,-0.333 1,-1 4,-0.333 4,-0.667 0,-1 h -5 c -1.006,-0.896 -1.006,-1.562 0,-2 8.479,0.45 16.812,-0.383 25,-2.5 -3.891,-4.965 -7.891,-9.799 -12,-14.5 -2.067,2.456 -3.901,5.122 -5.5,8 -2.436,2.947 -5.269,5.28 -8.5,7 h -3 c 1.72,-5.662 3.554,-11.329 5.5,-17 1.175,-4.684 1.341,-9.35 0.5,-14 -31.291,9.043 -60.958,21.876 -89,38.5 -6.467,3.979 -12.467,8.479 -18,13.5 -20.378,16.069 -34.878,36.403 -43.5,61 -5.443,33.278 5.723,59.444 33.5,78.5 1.907,1.122 3.907,1.955 6,2.5 7.033,4.009 14.699,6.009 23,6 3.812,0.824 7.812,1.324 12,1.5 -4.222,1.45 -8.555,2.28 -13,2.5 h -8 c -32.194,-9.034 -52.027,-30.034 -59.5,-63 -2.429,-19.95 1.904,-38.283 13,-55 13.878,-20.878 31.378,-38.045 52.5,-51.5 24.086,-14.376 49.419,-26.043 76,-35 5.267,-1.191 10.601,-1.691 16,-1.5 -4.01,-18.186 -4.844,-36.52 -2.5,-55 0.758,-19.634 5.258,-38.3 13.5,-56 3.788,-3.865 3.455,-5.198 -1,-4 -0.667,0 -1,0.333 -1,1 h -5 c -2.107,-0.968 -4.441,-1.302 -7,-1 -2.489,0.202 -4.823,-0.298 -7,-1.5 -1.054,-1.388 -1.22,-2.888 -0.5,-4.5 8.048,-3.606 15.548,-8.106 22.5,-13.5 9.197,-8.863 18.031,-18.03 26.5,-27.5 5.667,-9 11.333,-18 17,-27 1.914,-5.893 3.414,-11.893 4.5,-18 0.656,-1.122 0.989,-2.455 1,-4 -4.694,-28.228 -5.861,-56.561 -3.5,-85 -1.518,0.663 -2.685,1.663 -3.5,3 -5.739,2.024 -11.572,2.357 -17.5,1 -1.301,-0.598 -2.135,-1.598 -2.5,-3 17.568,-13.238 31.568,-29.571 42,-49 -1.491,-0.744 -2.991,-1.41 -4.5,-2 -8.845,1.334 -17.678,1 -26.5,-1 -1.902,-1.651 -3.902,-1.984 -6,-1 -8.719,-1.184 -17.052,-3.684 -25,-7.5 -14.468,-8.146 -28.468,-16.98 -42,-26.5 -35.345,13.755 -63.512,36.421 -84.5,68 -0.718,0.951 -1.551,1.117 -2.5,0.5 25.232,-39.62 60.232,-65.62 105,-78 -7.497,-2.276 -14.831,-4.943 -22,-8 l -2,-2 c 2.538,-1.631 5.205,-2.964 8,-4 -31.451,5.482 -61.784,14.815 -91,28 -14.178,7.418 -28.178,14.752 -42,22 45.217,-30.092 94.883,-48.759 149,-56 9.564,-5.115 14.897,-13.115 16,-24 -30.319,-4.435 -60.652,-4.435 -91,0 -20.144,2.468 -40.144,5.802 -60,10 -20.83,4.708 -41.497,9.708 -62,15 47.138,-15.868 95.472,-26.201 145,-31 16.667,-0.667 33.333,-0.667 50,0 6.082,0.374 12.082,1.207 18,2.5 3.278,-8.778 5.445,-17.778 6.5,-27 -7.989,5.466 -16.822,7.633 -26.5,6.5 -0.559,-0.725 -0.892,-1.558 -1,-2.5 10.851,-7.671 21.018,-16.337 30.5,-26 1.366,-1.87 2.533,-3.87 3.5,-6 -4.765,-22.322 -9.598,-44.655 -14.5,-67 -1.864,-14.948 -3.031,-29.948 -3.5,-45 3.747,-0.108 7.414,0.392 11,1.5 7.18,3.06 14.514,5.727 22,8 16.301,10.133 32.968,19.633 50,28.5 15.935,-7.982 32.601,-13.815 50,-17.5 13.826,-1.138 27.493,-0.138 41,3 9.059,2.464 18.059,5.131 27,8 2.398,1.524 4.73,3.024 7,4.5 1.27,0.979 2.6,1.979 4,3 0.61,-0.124 0.94,-0.457 1,-1 16.28,-16.982 34.95,-30.815 56,-41.5 6.08,-1.193 12.08,-2.693 18,-4.5 2,0 3,1 3,3 -0.68,12.076 -2.01,24.076 -4,36 z m -289,186 c 0.463,2.721 1.129,5.388 2,8 -5.676,0.166 -11.343,-10e-4 -17,-0.5 -1.746,-0.471 -3.413,-1.138 -5,-2 6.224,-3.351 12.891,-5.184 20,-5.5 z m 2,1 c 6.982,0.624 13.982,1.124 21,1.5 -5.785,2.43 -11.785,3.93 -18,4.5 -1.846,-1.53 -2.846,-3.53 -3,-6 z"
       fill="#090603"
       opacity="0.856"
       id="path2" />
    <path
       d="m 1074.5,194.5 c 0.16,-1.699 -0.01,-3.366 -0.5,-5 -0.38,0.556 -0.88,0.889 -1.5,1 -1,-0.086 -1.83,0.248 -2.5,1 -9,14.991 -16.66,30.658 -23,47 -2.35,5.387 -5.19,10.387 -8.5,15 -8.7,-9.181 -18.37,-17.181 -29,-24 9.67,-7.833 19.33,-15.667 29,-23.5 8.5,-6.089 17.5,-11.422 27,-16 4.31,-1.167 8.65,-1.834 13,-2 -1.23,2.314 -2.57,4.481 -4,6.5 z"
       fill="#d8982f"
       id="path4" />
    <path
       d="m 840.5,249.5 c -2.993,-1.535 -5.993,-2.368 -9,-2.5 l -7.5,-7.5 c 1.512,3.986 3.845,7.652 7,11 0.783,1.819 0.283,3.152 -1.5,4 -4.76,-4.264 -8.593,-9.264 -11.5,-15 2.142,8.54 3.975,17.207 5.5,26 -1.322,0.17 -2.489,-0.163 -3.5,-1 -2,-4.667 -4,-9.333 -6,-14 1.751,12.59 3.251,25.257 4.5,38 -2.642,-0.012 -3.975,1.321 -4,4 -5.591,-26.065 -10.424,-52.398 -14.5,-79 -0.667,-6 -0.667,-12 0,-18 9.628,9.943 18.294,20.61 26,32 5.038,5.049 9.371,10.716 13,17 0.608,1.654 1.108,3.321 1.5,5 z"
       fill="#a77421"
       id="path6" />
    <path
       d="m 864.5,237.5 c 0.359,-1.871 1.359,-3.371 3,-4.5 -8.286,-4.738 -16.619,-9.071 -25,-13 3.199,3.566 6.033,7.4 8.5,11.5 -0.809,5.075 1.024,9.075 5.5,12 -2.295,2.797 -4.795,5.464 -7.5,8 -12.175,-20.521 -27.008,-39.021 -44.5,-55.5 1.667,-0.667 3.333,-0.667 5,0 21.974,10.651 43.308,22.317 64,35 -2.879,2.385 -5.879,4.552 -9,6.5 z"
       fill="#b5812c"
       id="path8" />
    <path
       d="m 1072.5,190.5 c -7.98,14.628 -14.31,29.962 -19,46 -3.19,6.894 -6.19,13.894 -9,21 -2.6,0.148 -4.6,-1.185 -6,-4 3.31,-4.613 6.15,-9.613 8.5,-15 6.34,-16.342 14,-32.009 23,-47 0.67,-0.752 1.5,-1.086 2.5,-1 z"
       fill="#d7a657"
       id="path10" />
    <path
       d="m 1074.5,194.5 c -0.74,2.48 -1.74,4.813 -3,7 -4.12,6.581 -7.46,13.581 -10,21 -2.68,4.702 -5.35,9.369 -8,14 4.69,-16.038 11.02,-31.372 19,-46 0.62,-0.111 1.12,-0.444 1.5,-1 0.49,1.634 0.66,3.301 0.5,5 z"
       fill="#dcba83"
       id="path12" />
    <path
       d="m 949.5,214.5 c -0.997,-0.03 -1.664,0.47 -2,1.5 0.856,1.595 2.189,2.428 4,2.5 26.104,8.478 48.94,22.478 68.5,42 1.54,1.968 2.71,4.135 3.5,6.5 -3.57,6.301 -6.73,12.801 -9.5,19.5 -7.26,5.385 -15.096,9.885 -23.5,13.5 -4.213,3.72 -8.546,7.22 -13,10.5 -0.915,0.828 -1.581,1.828 -2,3 0.809,1.571 1.143,3.238 1,5 5.505,-3.253 11.172,-6.253 17,-9 h 1 c 11.05,-0.294 22.05,-0.294 33,0 4.57,0.524 8.91,1.857 13,4 -1.35,-0.05 -2.85,0.283 -4.5,1 -0.71,1.867 -0.21,3.367 1.5,4.5 -2.83,0.167 -4.33,1.667 -4.5,4.5 -1.27,1.383 -2.77,2.383 -4.5,3 -1.56,-0.233 -2.9,-0.9 -4,-2 -23.08,-10.301 -40.082,-3.968 -51,19 -1.517,0.011 -2.684,0.677 -3.5,2 -2.732,3.741 -5.066,7.741 -7,12 -1.153,3.348 0.014,5.348 3.5,6 0.235,0.597 0.735,0.93 1.5,1 1.303,-0.478 2.469,-1.145 3.5,-2 1.142,3.617 2.808,6.95 5,10 -0.16,1.699 0.006,3.366 0.5,5 0.383,-0.556 0.883,-0.889 1.5,-1 0.997,-0.03 1.664,0.47 2,1.5 -3.037,5.572 -5.371,11.405 -7,17.5 -1.208,4.549 -2.375,9.215 -3.5,14 -2.549,4.521 -6.383,6.855 -11.5,7 v 3 c -1.773,2.56 -3.773,4.893 -6,7 -2.141,2.468 -4.808,4.134 -8,5 -1.947,-0.777 -3.78,-1.777 -5.5,-3 -1.343,2.962 -0.176,4.962 3.5,6 5.923,1.321 11.423,-0.012 16.5,-4 1.726,1.076 3.559,1.243 5.5,0.5 11.987,-3.334 21.821,-9.834 29.5,-19.5 1.932,-4.962 3.765,-9.962 5.5,-15 2.9,-3.571 6.57,-5.904 11,-7 -1.13,1.629 -2.46,3.129 -4,4.5 0.33,0.167 0.67,0.333 1,0.5 1.76,-1.778 3.76,-3.111 6,-4 0.47,3.402 1.97,6.402 4.5,9 9.17,6.5 18.33,13 27.5,19.5 1.85,2.018 3.85,3.851 6,5.5 0.81,1.571 1.14,3.238 1,5 -10.42,1.08 -20.42,3.414 -30,7 -7.3,-0.875 -14.64,-1.542 -22,-2 -3.333,0.167 -6.667,0.333 -10,0.5 -0.556,0.383 -0.889,0.883 -1,1.5 -0.876,-0.131 -1.543,0.202 -2,1 1.077,1.205 2.41,1.872 4,2 -7.377,6.026 -15.71,10.526 -25,13.5 -0.752,0.671 -1.086,1.504 -1,2.5 -11.575,1.933 -23.242,2.433 -35,1.5 -15.372,-2.451 -30.705,-5.118 -46,-8 -7.181,-1.719 -7.848,-4.886 -2,-9.5 l -1,-1 c -3.832,2.75 -7.832,5.25 -12,7.5 -10.077,0.807 -20.077,0.64 -30,-0.5 0.778,-0.656 1.444,-1.489 2,-2.5 -7.053,-3.3 -14.386,-6.133 -22,-8.5 0.487,-0.973 0.987,-1.973 1.5,-3 4.054,1.442 8.221,2.442 12.5,3 0.17,-1.322 -0.163,-2.489 -1,-3.5 -4,-1.333 -8,-2.667 -12,-4 6.416,0.01 7.416,-2.157 3,-6.5 4.36,-2.258 9.027,-3.591 14,-4 v -4 c -1.373,0.157 -2.707,-0.01 -4,-0.5 0.837,-1.011 1.17,-2.178 1,-3.5 h -4 c 1.286,-0.687 2.952,-1.854 5,-3.5 -1.051,-1.385 -2.384,-2.385 -4,-3 11.399,-0.633 22.732,-0.299 34,1 -7.305,-1.495 -14.638,-2.662 -22,-3.5 h -10 c -5.485,-0.827 -11.152,-1.327 -17,-1.5 -3.523,-3.398 -5.189,-7.564 -5,-12.5 18.521,-0.387 36.687,1.946 54.5,7 1.762,-0.444 1.595,-0.944 -0.5,-1.5 -14.695,-4.378 -29.695,-6.878 -45,-7.5 h -8 c 0.679,-6.715 1.679,-13.382 3,-20 h 3 c 15.341,3.003 30.008,8.003 44,15 -3.561,-3.032 -7.561,-5.532 -12,-7.5 -10.932,-4.365 -21.932,-8.198 -33,-11.5 1.113,-6.843 2.947,-13.51 5.5,-20 5.609,-14.828 11.609,-29.494 18,-44 1.156,-3.623 2.156,-7.289 3,-11 10.222,-16.22 21.222,-31.887 33,-47 0.579,-1.428 0.412,-2.762 -0.5,-4 16.154,-9.574 33.487,-16.074 52,-19.5 7.179,-0.821 14.179,-0.655 21,0.5 z"
       fill="#d9982f"
       id="path14" />
    <path
       d="m 1071.5,201.5 c -0.09,3.098 0.41,3.432 1.5,1 0.67,1.333 1.33,1.333 2,0 0.74,1.249 0.57,2.249 -0.5,3 -4.59,6.115 -8.59,13.115 -12,21 0.27,-1.599 -0.07,-2.932 -1,-4 2.54,-7.419 5.88,-14.419 10,-21 z"
       fill="#35312a"
       id="path16" />
    <path
       d="m 949.5,214.5 c 15.918,1.484 31.251,5.317 46,11.5 8.05,6.024 16.71,11.024 26,15 7.62,6.776 14.28,14.276 20,22.5 -0.88,-0.131 -1.54,0.202 -2,1 5.94,9.167 9.28,19.167 10,30 -1.46,-4.471 -3.79,-8.471 -7,-12 -2.59,-9.179 -6.76,-17.513 -12.5,-25 -0.33,0.667 -0.67,1.333 -1,2 -5.5,-8.167 -12.33,-15 -20.5,-20.5 -17.299,-11.489 -36.299,-18.322 -57,-20.5 -1.811,-0.072 -3.144,-0.905 -4,-2.5 0.336,-1.03 1.003,-1.53 2,-1.5 z"
       fill="#deba81"
       id="path18" />
    <path
       d="m 951.5,218.5 c 20.701,2.178 39.701,9.011 57,20.5 8.17,5.5 15,12.333 20.5,20.5 0.33,-0.667 0.67,-1.333 1,-2 5.74,7.487 9.91,15.821 12.5,25 -1.9,2.296 -4.23,4.129 -7,5.5 -6.16,6 -8.83,13.167 -8,21.5 -10.95,-0.294 -21.95,-0.294 -33,0 0.763,-0.768 1.763,-1.268 3,-1.5 6,-0.333 12,-0.667 18,-1 -12.55,-1.889 -24.55,-0.222 -36,5 4.589,-0.909 9.256,-1.742 14,-2.5 -5.828,2.747 -11.495,5.747 -17,9 0.143,-1.762 -0.191,-3.429 -1,-5 0.419,-1.172 1.085,-2.172 2,-3 4.454,-3.28 8.787,-6.78 13,-10.5 8.404,-3.615 16.24,-8.115 23.5,-13.5 2.77,-6.699 5.93,-13.199 9.5,-19.5 -0.79,-2.365 -1.96,-4.532 -3.5,-6.5 -19.56,-19.522 -42.396,-33.522 -68.5,-42 z"
       fill="#d9a859"
       id="path20" />
    <path
       d="m 1074.5,205.5 v 4 c -0.82,27.502 -6.32,54.169 -16.5,80 -1.45,-2.441 -2.28,-5.108 -2.5,-8 1.53,-10.784 3.36,-21.451 5.5,-32 -0.79,2.401 -1.96,4.568 -3.5,6.5 -1.05,0.492 -2.05,0.326 -3,-0.5 -0.78,1.237 -1.78,2.237 -3,3 -0.97,-2.243 -1.31,-4.576 -1,-7 3.73,-8.46 7.73,-16.793 12,-25 3.41,-7.885 7.41,-14.885 12,-21 z"
       fill="#e1c290"
       id="path22" />
    <path
       d="m 864.5,237.5 c -2.36,2.353 -5.027,4.353 -8,6 -4.476,-2.925 -6.309,-6.925 -5.5,-12 -2.467,-4.1 -5.301,-7.934 -8.5,-11.5 8.381,3.929 16.714,8.262 25,13 -1.641,1.129 -2.641,2.629 -3,4.5 z"
       fill="#d6962e"
       id="path24" />
    <path
       d="m 1002.5,225.5 c 2.01,-0.108 3.68,0.558 5,2 -0.06,0.543 -0.39,0.876 -1,1 -1.4,-1.021 -2.73,-2.021 -4,-3 z"
       fill="#c8a975"
       opacity="0.143"
       id="path26" />
    <path
       d="m 876.5,233.5 c 0.912,1.238 1.079,2.572 0.5,4 -11.778,15.113 -22.778,30.78 -33,47 -0.844,3.711 -1.844,7.377 -3,11 -6.391,14.506 -12.391,29.172 -18,44 -2.553,6.49 -4.387,13.157 -5.5,20 h -3 c 9.444,-29.153 17.944,-58.486 25.5,-88 3.333,-4 6.667,-8 10,-12 1.122,-1.907 1.955,-3.907 2.5,-6 1.794,-2.297 3.794,-4.463 6,-6.5 6.209,-4.266 12.209,-8.766 18,-13.5 z"
       fill="#b78430"
       id="path28" />
    <path
       d="m 840.5,249.5 c 0.489,1.495 1.155,2.829 2,4 0.16,1.699 -0.006,3.366 -0.5,5 -10.317,10.493 -18.484,22.493 -24.5,36 -1.896,1.139 -2.896,0.473 -3,-2 0.025,-2.679 1.358,-4.012 4,-4 -1.249,-12.743 -2.749,-25.41 -4.5,-38 2,4.667 4,9.333 6,14 1.011,0.837 2.178,1.17 3.5,1 -1.525,-8.793 -3.358,-17.46 -5.5,-26 2.907,5.736 6.74,10.736 11.5,15 1.783,-0.848 2.283,-2.181 1.5,-4 -3.155,-3.348 -5.488,-7.014 -7,-11 l 7.5,7.5 c 3.007,0.132 6.007,0.965 9,2.5 z"
       fill="#b6832f"
       id="path30" />
    <path
       d="m 842.5,253.5 c -0.079,-1.43 0.254,-2.764 1,-4 -2.039,-2.399 -3.205,-5.066 -3.5,-8 2.5,3.667 5,7.333 7.5,11 -1.921,4.17 -3.587,4.504 -5,1 z"
       fill="#936821"
       id="path32" />
    <path
       d="m 852.5,253.5 c -0.545,2.093 -1.378,4.093 -2.5,6 -3.333,4 -6.667,8 -10,12 -7.556,29.514 -16.056,58.847 -25.5,88 -2.956,-0.637 -5.956,-1.137 -9,-1.5 -0.457,-0.414 -0.791,-0.914 -1,-1.5 3.595,-11.997 6.262,-23.997 8,-36 -5.924,5.633 -12.924,8.466 -21,8.5 8.822,-6.489 16.656,-13.989 23.5,-22.5 8.06,-20.779 20.56,-38.445 37.5,-53 z"
       fill="#a67421"
       id="path34" />
    <path
       d="m 1080.5,220.5 c 0.43,12.45 -0.57,24.784 -3,37 0.02,1.226 0.35,2.226 1,3 -0.34,2.354 -0.84,4.687 -1.5,7 -4.43,7.966 -8.93,15.299 -13.5,22 2.14,-10.093 5.48,-19.76 10,-29 1.47,-4.553 2.64,-9.219 3.5,-14 0.92,-8.846 2.09,-17.512 3.5,-26 z"
       fill="#e6d5b8"
       opacity="0.096"
       id="path36" />
    <path
       d="m 1078.5,260.5 c 16.8,12.297 30.63,27.297 41.5,45 2.42,5.086 3.92,10.419 4.5,16 -11.75,4.255 -23.42,8.921 -35,14 -2.14,-7.529 -3.48,-15.195 -4,-23 -2.77,0.079 -5.44,-0.421 -8,-1.5 -5.79,-4.122 -11.29,-8.622 -16.5,-13.5 0.13,-2.894 0.96,-5.561 2.5,-8 4.57,-6.701 9.07,-14.034 13.5,-22 0.66,-2.313 1.16,-4.646 1.5,-7 z"
       fill="#eed1a3"
       opacity="0.078"
       id="path38" />
    <path
       d="m 1055.5,281.5 h -1 c -2.18,-7.351 -5.18,-14.351 -9,-21 1.29,-3.271 2.96,-6.271 5,-9 -0.31,2.424 0.03,4.757 1,7 1.22,-0.763 2.22,-1.763 3,-3 0.95,0.826 1.95,0.992 3,0.5 1.54,-1.932 2.71,-4.099 3.5,-6.5 -2.14,10.549 -3.97,21.216 -5.5,32 z"
       fill="#d8aa61"
       id="path40" />
    <path
       d="m 1074.5,209.5 c 1.73,16.629 0.73,33.129 -3,49.5 0.34,1.03 1,1.53 2,1.5 -4.52,9.24 -7.86,18.907 -10,29 -1.54,2.439 -2.37,5.106 -2.5,8 5.21,4.878 10.71,9.378 16.5,13.5 2.56,1.079 5.23,1.579 8,1.5 0.21,1.679 -0.45,2.679 -2,3 -2.84,-0.06 -5.51,-0.726 -8,-2 -10.77,-5.888 -19.11,-14.221 -25,-25 0.53,-0.692 1.19,-1.192 2,-1.5 -0.75,-0.671 -1.09,-1.504 -1,-2.5 h 3 v -3 h 1 c 0.22,2.892 1.05,5.559 2.5,8 10.18,-25.831 15.68,-52.498 16.5,-80 z"
       fill="#262420"
       opacity="0.999"
       id="path42" />
    <path
       d="m 1041.5,263.5 c 3.03,7.057 6.36,14.057 10,21 -0.09,0.996 0.25,1.829 1,2.5 -0.81,0.308 -1.47,0.808 -2,1.5 5.89,10.779 14.23,19.112 25,25 -1.8,0.662 -3.8,0.995 -6,1 -4.11,-0.221 -8.11,-0.721 -12,-1.5 2.59,1.339 4.09,3.506 4.5,6.5 2.03,9.587 3.53,19.254 4.5,29 -1.72,0.129 -3.38,0.462 -5,1 v -1 c -3.08,-11.47 -5.25,-23.136 -6.5,-35 -0.93,-2.052 -2.43,-3.552 -4.5,-4.5 0.95,-0.617 1.78,-0.451 2.5,0.5 0.66,-4.239 -0.84,-7.406 -4.5,-9.5 0.81,-0.308 1.47,-0.808 2,-1.5 -0.75,-1.236 -1.08,-2.57 -1,-4 -0.72,-10.833 -4.06,-20.833 -10,-30 0.46,-0.798 1.12,-1.131 2,-1 z"
       fill="#e2c9a0"
       id="path44" />
    <path
       d="m 1042.5,282.5 c 3.21,3.529 5.54,7.529 7,12 -0.08,1.43 0.25,2.764 1,4 -0.53,0.692 -1.19,1.192 -2,1.5 3.66,2.094 5.16,5.261 4.5,9.5 -0.72,-0.951 -1.55,-1.117 -2.5,-0.5 2.07,0.948 3.57,2.448 4.5,4.5 1.25,11.864 3.42,23.53 6.5,35 -2.31,-3.267 -4.64,-6.6 -7,-10 -5.12,-3.284 -9.45,-7.45 -13,-12.5 -1.32,-0.528 -1.98,-0.028 -2,1.5 -2.77,1.223 -5.44,2.723 -8,4.5 -7.9,0.259 -15.57,-0.574 -23,-2.5 6.25,-0.793 12.59,-1.293 19,-1.5 0.56,-0.383 0.89,-0.883 1,-1.5 1.73,-0.617 3.23,-1.617 4.5,-3 0.17,-2.833 1.67,-4.333 4.5,-4.5 -1.71,-1.133 -2.21,-2.633 -1.5,-4.5 1.65,-0.717 3.15,-1.05 4.5,-1 -4.09,-2.143 -8.43,-3.476 -13,-4 -0.83,-8.333 1.84,-15.5 8,-21.5 2.77,-1.371 5.1,-3.204 7,-5.5 z"
       fill="#e0b775"
       id="path46" />
    <path
       d="m 885.5,309.5 c 0,0.667 -0.333,1 -1,1 -12.211,-0.572 -24.211,0.261 -36,2.5 3.415,-1.917 7.081,-3.25 11,-4 8.689,-0.673 17.356,-0.507 26,0.5 z"
       fill="#1a1306"
       id="path48" />
    <path
       d="m 1125.5,326.5 c -13.79,3.819 -27.12,8.819 -40,15 h -1 c -1.33,0 -2,-0.667 -2,-2 2.53,-1.096 4.86,-2.429 7,-4 11.58,-5.079 23.25,-9.745 35,-14 31.38,-8.922 63.38,-13.089 96,-12.5 -32.66,1.167 -64.33,7.001 -95,17.5 z"
       fill="#070705"
       opacity="0.64"
       id="path50" />
    <path
       d="m 994.5,309.5 h -1 c -4.744,0.758 -9.411,1.591 -14,2.5 11.45,-5.222 23.45,-6.889 36,-5 -6,0.333 -12,0.667 -18,1 -1.237,0.232 -2.237,0.732 -3,1.5 z"
       fill="#261f13"
       id="path52" />
    <path
       d="m 885.5,309.5 c 3.026,0.674 6.026,1.507 9,2.5 -3.533,0.243 -6.867,-0.257 -10,-1.5 0.667,0 1,-0.333 1,-1 z"
       fill="#664716"
       id="path54" />
    <path
       d="m 1085.5,312.5 c 0.52,7.805 1.86,15.471 4,23 -2.14,1.571 -4.47,2.904 -7,4 -3.97,1.987 -7.97,3.987 -12,6 -3.11,-9.443 -5.11,-19.109 -6,-29 6.57,1.588 12.9,1.255 19,-1 1.55,-0.321 2.21,-1.321 2,-3 z"
       fill="#e9d4b3"
       opacity="0.534"
       id="path56" />
    <path
       d="m 1024.5,324.5 c -0.42,0.624 -1.08,0.957 -2,1 -10.4,-2.675 -20.74,-2.508 -31,0.5 -8.551,7.227 -15.718,15.727 -21.5,25.5 0.31,-2.961 1.476,-5.628 3.5,-8 10.918,-22.968 27.92,-29.301 51,-19 z"
       fill="#ebd4af"
       id="path58" />
    <path
       d="m 1024.5,324.5 c 1.1,1.1 2.44,1.767 4,2 -0.11,0.617 -0.44,1.117 -1,1.5 -6.41,0.207 -12.75,0.707 -19,1.5 -5.66,-0.341 -10.989,0.826 -16,3.5 -2.309,2.487 -4.976,4.487 -8,6 -4.5,5.167 -9,10.333 -13.5,15.5 -2.06,2.786 -3.56,5.786 -4.5,9 -3.486,-0.652 -4.653,-2.652 -3.5,-6 1.934,-4.259 4.268,-8.259 7,-12 0.816,-1.323 1.983,-1.989 3.5,-2 -2.024,2.372 -3.19,5.039 -3.5,8 5.782,-9.773 12.949,-18.273 21.5,-25.5 10.26,-3.008 20.6,-3.175 31,-0.5 0.92,-0.043 1.58,-0.376 2,-1 z"
       fill="#d6a759"
       id="path60" />
    <path
       d="m 1125.5,326.5 c -0.07,10.633 -3.07,20.3 -9,29 -8.04,1.452 -16.04,3.118 -24,5 -2.62,-6.235 -4.95,-12.568 -7,-19 12.88,-6.181 26.21,-11.181 40,-15 z"
       fill="#eed1a3"
       opacity="0.035"
       id="path62" />
    <path
       d="m 1039.5,327.5 c 1.03,0.397 1.19,1.063 0.5,2 -4.25,5.449 -9.75,8.449 -16.5,9 -6.14,-2.328 -12.47,-3.494 -19,-3.5 1.67,2.333 3.33,4.667 5,7 -0.87,1.045 -1.87,1.878 -3,2.5 -1.33,-2 -3,-3.667 -5,-5 -1.44,-1.203 -3.109,-1.703 -5,-1.5 -7.79,6.725 -9.123,14.558 -4,23.5 1.192,2.422 3.192,3.422 6,3 8.3,-0.302 11.96,-4.636 11,-13 0.62,-0.111 1.12,-0.444 1.5,-1 0.33,3 0.67,6 1,9 3.36,-4.85 6.86,-9.517 10.5,-14 0.88,-0.131 1.54,0.202 2,1 -0.63,0.917 -0.96,1.917 -1,3 -1.78,5.766 -4.78,10.766 -9,15 -3.94,2.802 -8.27,4.802 -13,6 -8.068,0.807 -15.735,2.807 -23,6 -0.617,0.111 -1.117,0.444 -1.5,1 -0.494,-1.634 -0.66,-3.301 -0.5,-5 2.43,-0.93 4.43,-2.43 6,-4.5 2.333,-0.333 4.667,-0.667 7,-1 -1.025,-2.071 -1.858,-4.238 -2.5,-6.5 -0.333,-5.333 -0.667,-10.667 -1,-16 -6.209,5.027 -11.042,11.027 -14.5,18 -1.031,0.855 -2.197,1.522 -3.5,2 -0.765,-0.07 -1.265,-0.403 -1.5,-1 0.94,-3.214 2.44,-6.214 4.5,-9 4.5,-5.167 9,-10.333 13.5,-15.5 3.024,-1.513 5.691,-3.513 8,-6 5.011,-2.674 10.34,-3.841 16,-3.5 7.43,1.926 15.1,2.759 23,2.5 2.56,-1.777 5.23,-3.277 8,-4.5 z"
       fill="#0e0c08"
       opacity="0.996"
       id="path64" />
    <path
       d="m 894.5,341.5 c 5.294,3.627 9.961,7.96 14,13 1.323,3.317 2.657,6.65 4,10 -0.233,1.432 -0.9,1.932 -2,1.5 -0.899,-1.652 -1.899,-3.152 -3,-4.5 -2.896,-7.232 -7.896,-12.565 -15,-16 -0.731,1.901 -0.731,3.901 0,6 h -5 v -1 c -0.985,-4.319 -3.652,-6.986 -8,-8 -3.037,1.402 -6.037,2.735 -9,4 -1.465,4.196 -2.465,8.53 -3,13 -0.174,2.193 0.493,4.027 2,5.5 7.955,5.647 13.955,4.147 18,-4.5 1.788,-0.285 3.455,0.048 5,1 -0.997,2.311 -1.497,4.644 -1.5,7 4.186,2.997 8.019,6.33 11.5,10 0.219,1.175 -0.114,2.175 -1,3 -2.822,-2.913 -6.155,-5.08 -10,-6.5 -8.754,-2.142 -17.42,-4.476 -26,-7 -4.78,-4.271 -8.113,-9.437 -10,-15.5 0.247,-1.213 0.914,-1.88 2,-2 2.91,1.739 5.41,4.072 7.5,7 0.389,-4.556 1.555,-8.89 3.5,-13 -3.286,-1.255 -6.62,-2.255 -10,-3 -2.938,-2.434 -5.771,-5.101 -8.5,-8 -0.483,-0.948 -0.649,-1.948 -0.5,-3 4.652,0.828 8.652,2.995 12,6.5 11.317,-0.442 22.317,1.058 33,4.5 z"
       fill="#0b0905"
       opacity="0.993"
       id="path66" />
    <path
       d="m 1023.5,338.5 c 0.2,2.45 -0.13,4.783 -1,7 -3.64,4.483 -7.14,9.15 -10.5,14 -0.33,-3 -0.67,-6 -1,-9 -0.38,0.556 -0.88,0.889 -1.5,1 -1.32,0.17 -2.49,-0.163 -3.5,-1 -0.49,-2.045 -0.32,-4.045 0.5,-6 1.13,-0.622 2.13,-1.455 3,-2.5 -1.67,-2.333 -3.33,-4.667 -5,-7 6.53,0.006 12.86,1.172 19,3.5 z"
       fill="#e2e1d5"
       id="path68" />
    <path
       d="m 1001.5,339.5 c -2.382,0.851 -4.382,2.184 -6,4 -3.893,4.741 -3.893,9.408 0,14 -0.086,0.996 0.248,1.829 1,2.5 2.525,0.896 4.69,0.396 6.5,-1.5 0.67,0.667 0.67,1.333 0,2 -3.319,3.291 -6.819,3.624 -10.5,1 -5.123,-8.942 -3.79,-16.775 4,-23.5 1.891,-0.203 3.56,0.297 5,1.5 z"
       fill="#3d8630"
       id="path70" />
    <path
       d="m 858.5,341.5 c 3.38,0.745 6.714,1.745 10,3 -1.945,4.11 -3.111,8.444 -3.5,13 -2.09,-2.928 -4.59,-5.261 -7.5,-7 -0.132,-3.07 0.201,-6.07 1,-9 z"
       fill="#dfd6ca"
       id="path72" />
    <path
       d="m 887.5,350.5 c -7.501,-6.006 -13.001,-4.339 -16.5,5 -2.005,6.99 0.495,9.824 7.5,8.5 2.36,-1.18 4.693,-2.347 7,-3.5 h 2 c -4.045,8.647 -10.045,10.147 -18,4.5 -1.507,-1.473 -2.174,-3.307 -2,-5.5 0.535,-4.47 1.535,-8.804 3,-13 2.963,-1.265 5.963,-2.598 9,-4 4.348,1.014 7.015,3.681 8,8 z"
       fill="#408b34"
       id="path74" />
    <path
       d="m 1075.5,313.5 c 2.49,1.274 5.16,1.94 8,2 -6.1,2.255 -12.43,2.588 -19,1 0.89,9.891 2.89,19.557 6,29 4.03,-2.013 8.03,-4.013 12,-6 0,1.333 0.67,2 2,2 -4.02,2.432 -8.19,4.766 -12.5,7 0.29,4.388 1.12,8.721 2.5,13 -1.15,-1.35 -1.82,-1.184 -2,0.5 0.82,2.434 1.16,4.934 1,7.5 -2,-1.333 -4,-1.333 -6,0 -0.32,-1.548 -1.32,-2.215 -3,-2 0,-0.667 0.33,-1 1,-1 2.2,-0.065 4.2,-0.732 6,-2 -1.28,-4.852 -2.95,-9.519 -5,-14 -1.02,0.693 -2.02,1.359 -3,2 0,-1.333 -0.67,-2 -2,-2 v -1 c 1.62,-0.538 3.28,-0.871 5,-1 -0.97,-9.746 -2.47,-19.413 -4.5,-29 -0.41,-2.994 -1.91,-5.161 -4.5,-6.5 3.89,0.779 7.89,1.279 12,1.5 2.2,-0.005 4.2,-0.338 6,-1 z"
       fill="#5a554c"
       opacity="0.998"
       id="path76" />
    <path
       d="m 908.5,354.5 c -4.039,-5.04 -8.706,-9.373 -14,-13 0.751,-1.073 1.751,-1.24 3,-0.5 1.821,1.743 3.821,3.243 6,4.5 0.929,-1.189 1.262,-2.522 1,-4 1.322,-0.17 2.489,0.163 3.5,1 0.499,3.986 0.666,7.986 0.5,12 z"
       fill="#ce9f52"
       id="path78" />
    <path
       d="m 976.5,372.5 c -2.192,-3.05 -3.858,-6.383 -5,-10 3.458,-6.973 8.291,-12.973 14.5,-18 0.333,5.333 0.667,10.667 1,16 0.642,2.262 1.475,4.429 2.5,6.5 -2.333,0.333 -4.667,0.667 -7,1 -1.57,2.07 -3.57,3.57 -6,4.5 z"
       fill="#e4ddd3"
       id="path80" />
    <path
       d="m 907.5,361.5 c 0.162,2.027 -0.005,4.027 -0.5,6 -2.121,3.553 -3.621,7.22 -4.5,11 -3.481,-3.67 -7.314,-7.003 -11.5,-10 0.003,-2.356 0.503,-4.689 1.5,-7 -1.545,-0.952 -3.212,-1.285 -5,-1 h -2 c -2.97,-3.79 -2.303,-6.79 2,-9 h 5 c -0.731,-2.099 -0.731,-4.099 0,-6 7.104,3.435 12.104,8.768 15,16 z"
       fill="#e3dfd3"
       id="path82" />
    <path
       d="m 995.5,343.5 c 4.87,0.033 7.04,2.366 6.5,7 -1.1,-1.894 -2.434,-2.561 -4,-2 -0.725,2.877 -0.225,5.543 1.5,8 -0.825,2.2 -2.158,2.534 -4,1 -3.893,-4.592 -3.893,-9.259 0,-14 z"
       fill="#6dde59"
       id="path84" />
    <path
       d="m 1001.5,339.5 c 2,1.333 3.67,3 5,5 -0.82,1.955 -0.99,3.955 -0.5,6 1.01,0.837 2.18,1.17 3.5,1 0.96,8.364 -2.7,12.698 -11,13 -2.808,0.422 -4.808,-0.578 -6,-3 3.681,2.624 7.181,2.291 10.5,-1 0.67,-0.667 0.67,-1.333 0,-2 -1.81,1.896 -3.975,2.396 -6.5,1.5 -0.752,-0.671 -1.086,-1.504 -1,-2.5 1.842,1.534 3.175,1.2 4,-1 -1.725,-2.457 -2.225,-5.123 -1.5,-8 1.566,-0.561 2.9,0.106 4,2 0.54,-4.634 -1.63,-6.967 -6.5,-7 1.618,-1.816 3.618,-3.149 6,-4 z"
       fill="#96eb87"
       id="path86" />
    <path
       d="m 1029.5,349.5 c 0.26,-1.478 -0.07,-2.811 -1,-4 -1.11,4.881 -3.27,9.214 -6.5,13 -2.11,2.618 -4.61,4.618 -7.5,6 4.22,-4.234 7.22,-9.234 9,-15 2.33,-1.236 3.49,-3.236 3.5,-6 1.01,-0.837 2.18,-1.17 3.5,-1 0.3,2.559 -0.03,4.893 -1,7 z"
       fill="#dfbc84"
       id="path88" />
    <path
       d="m 1061.5,348.5 v 1 1 c -2.21,1.273 -4.55,2.273 -7,3 -2.4,-7.5 -6.74,-13.5 -13,-18 -2.53,10.106 -6.7,19.44 -12.5,28 -0.81,1.936 -1.31,3.936 -1.5,6 -8.68,4.842 -16.68,10.675 -24,17.5 0.67,0.667 1.33,0.667 2,0 5.03,-4.844 10.7,-8.677 17,-11.5 -1.2,1.892 -2.53,3.726 -4,5.5 1.4,0.41 2.73,0.91 4,1.5 -2.67,2 -5.33,4 -8,6 -1.33,0.333 -2.67,0.667 -4,1 -4.43,1.096 -8.1,3.429 -11,7 -1.735,5.038 -3.568,10.038 -5.5,15 -7.679,9.666 -17.513,16.166 -29.5,19.5 -1.941,0.743 -3.774,0.576 -5.5,-0.5 -5.077,3.988 -10.577,5.321 -16.5,4 2.951,0.213 5.618,-0.454 8,-2 3.521,-1.182 6.521,-3.182 9,-6 5.736,-3.624 11.236,-7.624 16.5,-12 1.885,-4.322 3.385,-8.822 4.5,-13.5 -0.296,-1.888 -0.796,-3.722 -1.5,-5.5 -0.942,4.847 -2.108,9.514 -3.5,14 0.603,-5.119 -0.064,-9.785 -2,-14 1.629,-6.095 3.963,-11.928 7,-17.5 -0.336,-1.03 -1.003,-1.53 -2,-1.5 7.265,-3.193 14.932,-5.193 23,-6 -3.273,2.644 -6.94,4.811 -11,6.5 -1.388,0.889 -1.222,1.389 0.5,1.5 9.29,-3.227 18.12,-7.394 26.5,-12.5 5.36,-4.585 9.36,-10.085 12,-16.5 0.97,-2.107 1.3,-4.441 1,-7 -1.32,-0.17 -2.49,0.163 -3.5,1 -0.01,2.764 -1.17,4.764 -3.5,6 0.04,-1.083 0.37,-2.083 1,-3 -0.46,-0.798 -1.12,-1.131 -2,-1 0.87,-2.217 1.2,-4.55 1,-7 6.75,-0.551 12.25,-3.551 16.5,-9 0.69,-0.937 0.53,-1.603 -0.5,-2 0.02,-1.528 0.68,-2.028 2,-1.5 3.55,5.05 7.88,9.216 13,12.5 2.36,3.4 4.69,6.733 7,10 z"
       fill="#d8a85a"
       id="path90" />
    <path
       d="m 1112.5,360.5 c -6.59,1.432 -13.26,2.432 -20,3 -2.3,-0.304 -2.63,-1.304 -1,-3 h 1 c 7.96,-1.882 15.96,-3.548 24,-5 64.41,-9.495 128.08,-5.995 191,10.5 10.48,3.272 20.82,6.939 31,11 -9.08,-2.023 -18.08,-4.689 -27,-8 -65.75,-15.986 -132.08,-18.82 -199,-8.5 z"
       fill="#010000"
       opacity="0.648"
       id="path92" />
    <path
       d="m 1061.5,350.5 c 1.33,0 2,0.667 2,2 -0.67,0 -1,0.333 -1,1 -2.32,0.492 -4.32,1.492 -6,3 -11.85,5.54 -23.18,11.873 -34,19 -6.3,2.823 -11.97,6.656 -17,11.5 -0.67,0.667 -1.33,0.667 -2,0 7.32,-6.825 15.32,-12.658 24,-17.5 9.2,-5.096 18.2,-10.43 27,-16 2.45,-0.727 4.79,-1.727 7,-3 z"
       fill="#18130b"
       opacity="0.97"
       id="path94" />
    <path
       d="m 1065.5,366.5 c -0.39,-4.489 -1.39,-8.823 -3,-13 0,-0.667 0.33,-1 1,-1 0.98,-0.641 1.98,-1.307 3,-2 2.05,4.481 3.72,9.148 5,14 -1.8,1.268 -3.8,1.935 -6,2 z"
       fill="#e4d1b0"
       id="path96" />
    <path
       d="m 1084.5,341.5 h 1 c 2.05,6.432 4.38,12.765 7,19 h -1 c -4.5,0.933 -9,1.933 -13.5,3 -1.7,0.113 -2.87,-0.553 -3.5,-2 -1.38,-4.279 -2.21,-8.612 -2.5,-13 4.31,-2.234 8.48,-4.568 12.5,-7 z"
       fill="#e7d9c1"
       opacity="0.361"
       id="path98" />
    <path
       d="m 1054.5,353.5 c -8.8,5.57 -17.8,10.904 -27,16 0.19,-2.064 0.69,-4.064 1.5,-6 5.8,-8.56 9.97,-17.894 12.5,-28 6.26,4.5 10.6,10.5 13,18 z"
       fill="#d79a35"
       id="path100" />
    <path
       d="m 818.5,363.5 h -3 c -1.321,6.618 -2.321,13.285 -3,20 -6.675,0.166 -13.342,0 -20,-0.5 5.378,-6.254 9.044,-13.421 11,-21.5 5.294,-1.087 10.294,-0.42 15,2 z"
       fill="#a77524"
       id="path102" />
    <path
       d="m 887.5,350.5 v 1 c -4.303,2.21 -4.97,5.21 -2,9 -2.307,1.153 -4.64,2.32 -7,3.5 -7.005,1.324 -9.505,-1.51 -7.5,-8.5 3.499,-9.339 8.999,-11.006 16.5,-5 z"
       fill="#76e162"
       id="path104" />
    <path
       d="m 878.5,350.5 c 1.69,2.004 3.024,4.337 4,7 -2.983,6.83 -5.317,6.664 -7,-0.5 0.34,-2.511 1.34,-4.678 3,-6.5 z"
       fill="#a8fa99"
       id="path106" />
    <path
       d="m 1056.5,356.5 c 1.91,3.817 3.24,7.817 4,12 -13.04,3.68 -25.71,8.346 -38,14 -1.27,-0.59 -2.6,-1.09 -4,-1.5 1.47,-1.774 2.8,-3.608 4,-5.5 10.82,-7.127 22.15,-13.46 34,-19 z"
       fill="#d5962f"
       id="path108" />
    <path
       d="m 1062.5,353.5 c 1.61,4.177 2.61,8.511 3,13 -0.67,0 -1,0.333 -1,1 -1.46,-0.067 -2.79,0.266 -4,1 -0.76,-4.183 -2.09,-8.183 -4,-12 1.68,-1.508 3.68,-2.508 6,-3 z"
       fill="#d8a95c"
       id="path110" />
    <path
       d="m 944.5,391.5 c 3.376,-5.745 6.543,-11.745 9.5,-18 0.494,-1.634 0.66,-3.301 0.5,-5 -4.652,-0.498 -9.319,-0.831 -14,-1 5.447,-1.777 11.114,-3.11 17,-4 1.821,10.582 -1.179,19.416 -9,26.5 -1.245,0.791 -2.578,1.291 -4,1.5 z"
       fill="#cfa053"
       id="path112" />
    <path
       d="m 1112.5,360.5 c -3.03,4.017 -6.69,7.35 -11,10 8.35,7.356 16.69,14.689 25,22 -3.98,-0.521 -7.98,-0.854 -12,-1 -7.48,-1.21 -15.14,-2.043 -23,-2.5 -6.95,-5.55 -11.95,-12.55 -15,-21 5.31,-1.826 10.65,-3.326 16,-4.5 6.74,-0.568 13.41,-1.568 20,-3 z"
       fill="#e6dac6"
       opacity="0.203"
       id="path114" />
    <path
       d="m 940.5,367.5 c 4.681,0.169 9.348,0.502 14,1 0.16,1.699 -0.006,3.366 -0.5,5 -2.957,6.255 -6.124,12.255 -9.5,18 -0.031,4.856 0.302,9.689 1,14.5 -0.333,1.5 -0.667,3 -1,4.5 -0.586,-0.209 -1.086,-0.543 -1.5,-1 -0.723,-6.683 -1.557,-13.349 -2.5,-20 -5.665,-4.833 -9.998,-10.667 -13,-17.5 0.259,-1.261 0.926,-2.261 2,-3 3.691,-0.42 7.358,-0.92 11,-1.5 z"
       fill="#14100c"
       opacity="0.955"
       id="path116" />
    <path
       d="m 1029.5,349.5 c -2.64,6.415 -6.64,11.915 -12,16.5 -8.38,5.106 -17.21,9.273 -26.5,12.5 -1.722,-0.111 -1.888,-0.611 -0.5,-1.5 4.06,-1.689 7.727,-3.856 11,-6.5 4.73,-1.198 9.06,-3.198 13,-6 2.89,-1.382 5.39,-3.382 7.5,-6 3.23,-3.786 5.39,-8.119 6.5,-13 0.93,1.189 1.26,2.522 1,4 z"
       fill="#e9d5b5"
       id="path118" />
    <path
       d="m 1064.5,367.5 c 1.68,-0.215 2.68,0.452 3,2 -2.51,0.427 -4.84,1.093 -7,2 -13.52,3.263 -26.52,7.93 -39,14 -2.21,1.273 -4.55,2.273 -7,3 2.67,-2 5.33,-4 8,-6 12.29,-5.654 24.96,-10.32 38,-14 1.21,-0.734 2.54,-1.067 4,-1 z"
       fill="#1a150b"
       opacity="0.983"
       id="path120" />
    <path
       d="m 1067.5,369.5 c 1.47,5.916 3.64,11.583 6.5,17 1.33,1.333 2.67,1.333 4,0 0.72,0.544 1.22,1.211 1.5,2 h -12 c 0.3,-0.65 0.64,-1.317 1,-2 -2.96,-4.934 -5.63,-9.934 -8,-15 2.16,-0.907 4.49,-1.573 7,-2 z"
       fill="#d7a656"
       id="path122" />
    <path
       d="m 1060.5,371.5 c 2.37,5.066 5.04,10.066 8,15 -0.36,0.683 -0.7,1.35 -1,2 -6.38,-0.205 -12.71,0.128 -19,1 -4.33,0.667 -8.67,1.333 -13,2 -4.24,-1.059 -8.4,-2.392 -12.5,-4 -1.03,-0.336 -1.53,-1.003 -1.5,-2 12.48,-6.07 25.48,-10.737 39,-14 z"
       fill="#d7972f"
       id="path124" />
    <path
       d="m 862.5,378.5 c 1.256,-0.039 2.256,0.461 3,1.5 -1.498,0.585 -2.498,0.085 -3,-1.5 z"
       fill="#291e0c"
       opacity="0.996"
       id="path126" />
    <path
       d="m 1073.5,369.5 c 1.74,7.318 5.41,13.485 11,18.5 -0.59,0.464 -1.26,0.631 -2,0.5 h -3 c -0.28,-0.789 -0.78,-1.456 -1.5,-2 -1.33,1.333 -2.67,1.333 -4,0 -2.86,-5.417 -5.03,-11.084 -6.5,-17 2,-1.333 4,-1.333 6,0 z"
       fill="#e3c697"
       id="path128" />
    <path
       d="m 820.5,383.5 c 15.305,0.622 30.305,3.122 45,7.5 2.095,0.556 2.262,1.056 0.5,1.5 -17.813,-5.054 -35.979,-7.387 -54.5,-7 h -8 c 5.667,-0.667 11.333,-1.333 17,-2 z"
       fill="#312611"
       opacity="0.989"
       id="path130" />
    <path
       d="m 803.5,385.5 h 8 c -0.189,4.936 1.477,9.102 5,12.5 5.848,0.173 11.515,0.673 17,1.5 -13.469,-0.636 -26.802,0.364 -40,3 -7.838,-2.002 -15.505,-4.502 -23,-7.5 3.717,-1.18 7.384,-2.513 11,-4 6.41,-5.071 13.744,-6.904 22,-5.5 z"
       fill="#a77524"
       id="path132" />
    <path
       d="m 1067.5,388.5 h 12 3 c 0.76,0.768 1.76,1.268 3,1.5 -1.29,0.49 -2.63,0.657 -4,0.5 h -31 c -0.99,0.172 -1.66,-0.162 -2,-1 6.29,-0.872 12.62,-1.205 19,-1 z"
       fill="#140f07"
       opacity="0.996"
       id="path134" />
    <path
       d="m 1074.5,361.5 c 0.63,1.447 1.8,2.113 3.5,2 4.5,-1.067 9,-2.067 13.5,-3 -1.63,1.696 -1.3,2.696 1,3 -5.35,1.174 -10.69,2.674 -16,4.5 3.05,8.45 8.05,15.45 15,21 7.86,0.457 15.52,1.29 23,2.5 -0.74,-0.131 -1.41,0.036 -2,0.5 1.07,0.852 2.07,1.685 3,2.5 -5.99,-0.907 -11.99,-1.407 -18,-1.5 5.34,3.548 11.17,5.382 17.5,5.5 0.62,0.949 0.45,1.782 -0.5,2.5 -3.17,1.725 -6.51,3.058 -10,4 -16.32,3.667 -32.65,4.167 -49,1.5 16.66,-0.61 33.33,-2.444 50,-5.5 -1.4,-0.41 -2.73,-0.91 -4,-1.5 -4.61,-1.971 -8.94,-4.471 -13,-7.5 -2.31,-0.497 -4.64,-0.663 -7,-0.5 v -1 c 1.37,0.157 2.71,-0.01 4,-0.5 -1.24,-0.232 -2.24,-0.732 -3,-1.5 0.74,0.131 1.41,-0.036 2,-0.5 -5.59,-5.015 -9.26,-11.182 -11,-18.5 0.16,-2.566 -0.18,-5.066 -1,-7.5 0.18,-1.684 0.85,-1.85 2,-0.5 z"
       fill="#45413b"
       id="path136" />
    <path
       d="m 1046.5,391.5 h 4 c 9.45,0.531 18.78,1.865 28,4 2.24,0.035 2.57,-0.798 1,-2.5 0.34,-1.03 1,-1.53 2,-1.5 2.36,-0.163 4.69,0.003 7,0.5 4.06,3.029 8.39,5.529 13,7.5 -0.11,0.617 -0.44,1.117 -1,1.5 -8.77,0.279 -17.44,-0.554 -26,-2.5 -9.82,-0.85 -19.15,-3.183 -28,-7 z"
       fill="#ecd4ab"
       id="path138" />
    <path
       d="m 1050.5,391.5 v -1 h 31 v 1 c -1,-0.03 -1.66,0.47 -2,1.5 1.57,1.702 1.24,2.535 -1,2.5 -9.22,-2.135 -18.55,-3.469 -28,-4 z"
       fill="#d29e4a"
       id="path140" />
    <path
       d="m 1014.5,388.5 c -0.33,0.667 -0.67,1.333 -1,2 -2.24,0.889 -4.24,2.222 -6,4 -0.33,-0.167 -0.67,-0.333 -1,-0.5 1.54,-1.371 2.87,-2.871 4,-4.5 1.33,-0.333 2.67,-0.667 4,-1 z"
       fill="#654d20"
       opacity="0.988"
       id="path142" />
    <path
       d="m 1048.5,389.5 c 0.34,0.838 1.01,1.172 2,1 v 1 h -4 c -3.28,-0.08 -6.28,0.587 -9,2 h -3 -2 c 1,-0.667 2,-1.333 3,-2 4.33,-0.667 8.67,-1.333 13,-2 z"
       fill="#635131"
       opacity="0.996"
       id="path144" />
    <path
       d="m 1034.5,393.5 h 3 c 11.94,5.493 24.27,7.16 37,5 8.56,1.946 17.23,2.779 26,2.5 0.56,-0.383 0.89,-0.883 1,-1.5 1.27,0.59 2.6,1.09 4,1.5 -16.67,3.056 -33.34,4.89 -50,5.5 -0.99,-0.172 -1.66,0.162 -2,1 -2.49,-0.962 -2.49,-1.795 0,-2.5 -3.47,-0.23 -6.13,-1.73 -8,-4.5 1.95,0.823 3.95,0.99 6,0.5 -6.23,-1.455 -11.89,-3.955 -17,-7.5 z"
       fill="#d8b680"
       id="path146" />
    <path
       d="m 1115.5,394.5 c 6.61,1.456 13.28,2.789 20,4 0.34,0.838 1.01,1.172 2,1 4.89,3.049 9.39,6.716 13.5,11 5.53,12.893 1.37,21.393 -12.5,25.5 -7.97,12.329 -19.3,19.663 -34,22 -16.95,1.789 -33.95,2.955 -51,3.5 -0.15,1.052 0.02,2.052 0.5,3 6.64,5.634 12.97,11.634 19,18 7.25,9.071 8.58,18.738 4,29 -6.61,7.875 -15.11,11.708 -25.5,11.5 -0.69,1.067 -1.19,2.234 -1.5,3.5 0.52,14.995 0.52,29.995 0,45 1.77,17.963 6.77,34.963 15,51 8.64,12.805 17.47,25.471 26.5,38 2.85,2.688 5.85,5.188 9,7.5 8.99,4.158 17.65,8.825 26,14 8.29,9.035 7.96,17.701 -1,26 -2.99,2.11 -6.33,3.443 -10,4 -0.52,0.561 -0.86,1.228 -1,2 7.71,16.332 12.88,33.499 15.5,51.5 4.74,14.213 9.07,28.547 13,43 2.92,10.926 -0.25,19.426 -9.5,25.5 2.14,2.615 3.14,5.615 3,9 -0.36,3.572 -1.03,7.072 -2,10.5 14.34,-0.191 28.68,-0.358 43,-0.5 6.54,4.134 6.54,8.468 0,13 -17.44,7.908 -35.77,11.742 -55,11.5 -45.91,-4.345 -91.91,-7.511 -138,-9.5 -5.03,-0.448 -10.03,-1.114 -15,-2 -2.739,-1.026 -5.072,-2.526 -7,-4.5 0.333,-1 1,-1.667 2,-2 3.891,-1.227 5.891,-3.894 6,-8 4.681,-0.169 9.348,-0.502 14,-1 10.487,0.994 21.15,1.328 32,1 12.18,0.781 24.51,1.614 37,2.5 11.57,2.484 23.24,4.317 35,5.5 4.26,0.089 8.26,-0.578 12,-2 13.6,-3.184 16.6,-10.517 9,-22 -3.62,-2.318 -7.62,-3.652 -12,-4 -1.79,-0.809 -3.79,-1.309 -6,-1.5 2.8,-5.099 5.96,-9.933 9.5,-14.5 6.3,6.308 13.64,10.975 22,14 1.16,-0.498 1.99,-1.331 2.5,-2.5 -4.7,-10.255 -8.7,-20.755 -12,-31.5 -2.81,-12.502 -4.65,-25.168 -5.5,-38 -1.44,-8.132 -3.94,-15.798 -7.5,-23 -2.16,-5.651 -4.83,-10.984 -8,-16 -4.35,-8.856 -9.35,-17.356 -15,-25.5 2.36,-1.276 4.69,-2.442 7,-3.5 2.25,-0.955 4.58,-1.622 7,-2 2.95,-1.78 5.79,-3.78 8.5,-6 0.62,-0.949 0.45,-1.782 -0.5,-2.5 -16.96,-0.645 -30.3,-7.811 -40,-21.5 -6,-8.177 -11.84,-16.51 -17.5,-25 -5.01,-9.688 -9.18,-19.688 -12.5,-30 h 3 c -2.04,-13.055 -6.04,-25.388 -12,-37 -1.68,-5.902 -2.51,-11.902 -2.5,-18 5.83,5.991 8.66,4.657 8.5,-4 -0.92,-15.651 -1.25,-31.317 -1,-47 6.62,0.208 13.12,1.208 19.5,3 1.5,-0.167 2.33,-1 2.5,-2.5 -7.43,-8.364 -14.27,-17.197 -20.5,-26.5 -3.69,-8.587 -7.86,-16.921 -12.5,-25 30.87,1.293 60.2,-4.707 88,-18 0.89,-0.825 1.22,-1.825 1,-3 -7.07,0.339 -14.07,-0.161 -21,-1.5 -10.3,-4.147 -19.96,-9.313 -29,-15.5 0.34,-0.838 1.01,-1.172 2,-1 16.35,2.667 32.68,2.167 49,-1.5 3.49,-0.942 6.83,-2.275 10,-4 0.95,-0.718 1.12,-1.551 0.5,-2.5 -6.33,-0.118 -12.16,-1.952 -17.5,-5.5 6.01,0.093 12.01,0.593 18,1.5 z"
       fill="#e7dcca"
       opacity="0.203"
       id="path148" />
    <path
       d="m 1114.5,391.5 c 4.02,0.146 8.02,0.479 12,1 34.01,5.833 65.67,17.666 95,35.5 17.93,11.925 32.43,27.091 43.5,45.5 1.63,2.558 2.63,5.225 3,8 -10.64,-19.973 -25.47,-36.14 -44.5,-48.5 -26.59,-16.461 -55.26,-27.628 -86,-33.5 -0.34,-0.838 -1.01,-1.172 -2,-1 -6.72,-1.211 -13.39,-2.544 -20,-4 -0.93,-0.815 -1.93,-1.648 -3,-2.5 0.59,-0.464 1.26,-0.631 2,-0.5 z"
       fill="#020202"
       opacity="0.585"
       id="path150" />
    <path
       d="m 973.5,395.5 c 1.936,4.215 2.603,8.881 2,14 -1.275,4.273 -3.942,7.273 -8,9 -2.982,0.463 -5.982,0.796 -9,1 v -3 c 5.117,-0.145 8.951,-2.479 11.5,-7 1.125,-4.785 2.292,-9.451 3.5,-14 z"
       fill="#0f0c06"
       opacity="0.974"
       id="path152" />
    <path
       d="m 1046.5,391.5 c 8.85,3.817 18.18,6.15 28,7 -12.73,2.16 -25.06,0.493 -37,-5 2.72,-1.413 5.72,-2.08 9,-2 z"
       fill="#d99c39"
       id="path154" />
    <path
       d="m 912.5,400.5 c 0.996,-0.086 1.829,0.248 2.5,1 0.043,9.041 4.543,13.875 13.5,14.5 0.457,0.414 0.791,0.914 1,1.5 -7.139,2.182 -12.306,-0.151 -15.5,-7 -1.199,-3.226 -1.699,-6.559 -1.5,-10 z"
       fill="#140f05"
       opacity="0.981"
       id="path156" />
    <path
       d="m 791.5,406.5 h 1 c 0,0.667 0.333,1 1,1 0.154,2.47 1.154,4.47 3,6 -0.709,0.904 -1.709,1.237 -3,1 -0.871,-2.612 -1.537,-5.279 -2,-8 z"
       fill="#a77520"
       opacity="0.205"
       id="path158" />
    <path
       d="m 1021.5,385.5 c -0.03,0.997 0.47,1.664 1.5,2 4.1,1.608 8.26,2.941 12.5,4 -1,0.667 -2,1.333 -3,2 v 1 h -3 c 7.35,16.351 19.35,28.018 36,35 h -1 c -4.01,1.103 -8.01,2.27 -12,3.5 -10.08,0.685 -20.08,1.851 -30,3.5 9.58,-3.586 19.58,-5.92 30,-7 0.14,-1.762 -0.19,-3.429 -1,-5 -2.15,-1.649 -4.15,-3.482 -6,-5.5 -9.17,-6.5 -18.33,-13 -27.5,-19.5 -2.53,-2.598 -4.03,-5.598 -4.5,-9 0.33,-0.667 0.67,-1.333 1,-2 2.45,-0.727 4.79,-1.727 7,-3 z"
       fill="#daa042"
       id="path160" />
    <path
       d="m 843.5,399.5 c 7.362,0.838 14.695,2.005 22,3.5 -11.268,-1.299 -22.601,-1.633 -34,-1 1.616,0.615 2.949,1.615 4,3 -2.048,1.646 -3.714,2.813 -5,3.5 0.419,2.825 -0.581,4.991 -3,6.5 -7.158,3.412 -14.158,7.078 -21,11 3.06,0.848 6.06,1.848 9,3 1.333,1.333 1.333,2.667 0,4 1.401,0.41 2.734,0.91 4,1.5 7.614,2.367 14.947,5.2 22,8.5 -0.556,1.011 -1.222,1.844 -2,2.5 -6.87,-0.551 -13.537,-2.051 -20,-4.5 -13.023,-6.237 -25.357,-13.403 -37,-21.5 8.797,-0.744 17.464,-2.244 26,-4.5 21.961,-7.036 21.294,-10.036 -2,-9 -2.51,-0.376 -4.843,-1.21 -7,-2.5 5.252,-1.306 10.586,-2.139 16,-2.5 9.509,-0.17 18.842,-0.67 28,-1.5 z"
       fill="#a57423"
       id="path162" />
    <path
       d="m 830.5,408.5 h 4 c 0.17,1.322 -0.163,2.489 -1,3.5 1.293,0.49 2.627,0.657 4,0.5 v 4 c -4.973,0.409 -9.64,1.742 -14,4 4.416,4.343 3.416,6.51 -3,6.5 4,1.333 8,2.667 12,4 0.837,1.011 1.17,2.178 1,3.5 -4.279,-0.558 -8.446,-1.558 -12.5,-3 -0.513,1.027 -1.013,2.027 -1.5,3 -1.266,-0.59 -2.599,-1.09 -4,-1.5 1.333,-1.333 1.333,-2.667 0,-4 -2.94,-1.152 -5.94,-2.152 -9,-3 6.842,-3.922 13.842,-7.588 21,-11 2.419,-1.509 3.419,-3.675 3,-6.5 z"
       fill="#b88430"
       id="path164" />
    <path
       d="m 958.5,409.5 c 1.837,0.139 2.17,0.806 1,2 -0.798,-0.457 -1.131,-1.124 -1,-2 z"
       fill="#291f0d"
       opacity="0.98"
       id="path166" />
    <path
       d="m 1032.5,394.5 c 8.36,8.858 17.02,17.691 26,26.5 4.62,3.099 9.62,5.432 15,7 -2.75,0.272 -5.42,0.772 -8,1.5 -16.65,-6.982 -28.65,-18.649 -36,-35 z"
       fill="#dcb370"
       id="path168" />
    <path
       d="m 924.5,410.5 c 1.548,0.321 2.215,1.321 2,3 -2.748,0.098 -3.414,-0.902 -2,-3 z"
       fill="#58431b"
       opacity="0.941"
       id="path170" />
    <path
       d="m 967.5,418.5 c -2.478,2.303 -5.145,4.469 -8,6.5 -1.238,0.69 -1.238,1.19 0,1.5 -2.479,2.818 -5.479,4.818 -9,6 0.976,-1.315 1.976,-2.648 3,-4 -0.363,-0.683 -0.696,-1.35 -1,-2 2.227,-2.107 4.227,-4.44 6,-7 3.018,-0.204 6.018,-0.537 9,-1 z"
       fill="#e1bd84"
       id="path172" />
    <path
       d="m 959.5,426.5 c -1.238,-0.31 -1.238,-0.81 0,-1.5 2.855,-2.031 5.522,-4.197 8,-6.5 4.058,-1.727 6.725,-4.727 8,-9 1.392,-4.486 2.558,-9.153 3.5,-14 0.704,1.778 1.204,3.612 1.5,5.5 -1.115,4.678 -2.615,9.178 -4.5,13.5 -5.264,4.376 -10.764,8.376 -16.5,12 z"
       fill="#ead5b3"
       id="path174" />
    <path
       d="m 1032.5,393.5 h 2 c 5.11,3.545 10.77,6.045 17,7.5 -2.05,0.49 -4.05,0.323 -6,-0.5 -0.74,-0.131 -1.41,0.036 -2,0.5 13.78,15.057 30.78,24.057 51,27 -10.63,4.38 -21.63,7.214 -33,8.5 0.42,-0.722 1.08,-1.222 2,-1.5 -1,-0.333 -2,-0.667 -3,-1 l 10,-1 c -2.4,-0.186 -4.73,-0.686 -7,-1.5 0.36,-0.683 0.7,-1.35 1,-2 h 1 c 2.58,-0.728 5.25,-1.228 8,-1.5 -5.38,-1.568 -10.38,-3.901 -15,-7 -8.98,-8.809 -17.64,-17.642 -26,-26.5 z"
       fill="#e2c69a"
       id="path176" />
    <path
       d="m 1045.5,400.5 c 1.87,2.77 4.53,4.27 8,4.5 -2.49,0.705 -2.49,1.538 0,2.5 9.04,6.187 18.7,11.353 29,15.5 6.93,1.339 13.93,1.839 21,1.5 0.22,1.175 -0.11,2.175 -1,3 -27.8,13.293 -57.13,19.293 -88,18 4.64,8.079 8.81,16.413 12.5,25 6.23,9.303 13.07,18.136 20.5,26.5 -0.17,1.5 -1,2.333 -2.5,2.5 -6.38,-1.792 -12.88,-2.792 -19.5,-3 -0.25,15.683 0.08,31.349 1,47 0.16,8.657 -2.67,9.991 -8.5,4 -0.01,6.098 0.82,12.098 2.5,18 -0.72,-1.051 -1.72,-1.718 -3,-2 -1.39,-2.377 -2.22,-5.043 -2.5,-8 -0.28,0.916 -0.78,1.582 -1.5,2 0.16,-2.027 0,-4.027 -0.5,-6 -0.77,-1.098 -1.6,-1.098 -2.5,0 0.87,-8.972 1.54,-17.972 2,-27 0.89,-0.61 1.89,-0.943 3,-1 1.3,6.74 3.13,13.406 5.5,20 -0.17,-9.983 -0.33,-19.983 -0.5,-30 1.06,-7.407 2.39,-14.741 4,-22 4.6,1.048 9.27,1.548 14,1.5 -12.23,-13.964 -21.23,-29.797 -27,-47.5 4.85,-1.302 9.52,-2.969 14,-5 4.68,0.166 9.35,-10e-4 14,-0.5 7.25,-1.709 14.59,-2.876 22,-3.5 11.37,-1.286 22.37,-4.12 33,-8.5 -20.22,-2.943 -37.22,-11.943 -51,-27 0.59,-0.464 1.26,-0.631 2,-0.5 z"
       fill="#3d3934"
       id="path178" />
    <path
       d="m 952.5,426.5 c 0.304,0.65 0.637,1.317 1,2 -1.024,1.352 -2.024,2.685 -3,4 -2.382,1.546 -5.049,2.213 -8,2 -3.676,-1.038 -4.843,-3.038 -3.5,-6 1.72,1.223 3.553,2.223 5.5,3 3.192,-0.866 5.859,-2.532 8,-5 z"
       fill="#1a150c"
       opacity="0.99"
       id="path180" />
    <path
       d="m 1064.5,429.5 c -0.3,0.65 -0.64,1.317 -1,2 2.27,0.814 4.6,1.314 7,1.5 l -10,1 c 1,0.333 2,0.667 3,1 -0.92,0.278 -1.58,0.778 -2,1.5 -7.41,0.624 -14.75,1.791 -22,3.5 -4.65,0.499 -9.32,0.666 -14,0.5 -5.01,0.166 -10.01,-10e-4 -15,-0.5 -6.89,-1.879 -13.893,-3.046 -21,-3.5 0.111,-0.617 0.444,-1.117 1,-1.5 3.333,-0.167 6.667,-0.333 10,-0.5 7.36,0.458 14.7,1.125 22,2 9.92,-1.649 19.92,-2.815 30,-3.5 3.99,-1.23 7.99,-2.397 12,-3.5 z"
       fill="#d8ad67"
       id="path182" />
    <path
       d="m 989.5,436.5 c 7.107,0.454 14.11,1.621 21,3.5 4.99,0.499 9.99,0.666 15,0.5 -4.48,2.031 -9.15,3.698 -14,5 -0.47,-1.193 -1.47,-1.86 -3,-2 -1,0.167 -2,0.333 -3,0.5 -6.671,4.002 -13.671,7.502 -21,10.5 -0.787,-1.604 -2.12,-2.271 -4,-2 7.415,-1.877 14.081,-5.377 20,-10.5 -2.966,-1.047 -5.966,-1.881 -9,-2.5 -1.59,-0.128 -2.923,-0.795 -4,-2 0.457,-0.798 1.124,-1.131 2,-1 z"
       fill="#26231f"
       id="path184" />
    <path
       d="m 832.5,447.5 c 2.098,-0.984 4.098,-0.651 6,1 -2.121,0.175 -4.121,-0.159 -6,-1 z"
       fill="#5a3f13"
       opacity="0.91"
       id="path186" />
    <path
       d="m 991.5,439.5 c 3.034,0.619 6.034,1.453 9,2.5 -5.919,5.123 -12.585,8.623 -20,10.5 -4.9,1.475 -9.9,2.475 -15,3 -0.086,-0.996 0.248,-1.829 1,-2.5 9.29,-2.974 17.623,-7.474 25,-13.5 z"
       fill="#cfa35c"
       id="path188" />
    <path
       d="m 880.5,450.5 c -2.586,0.987 -3.919,2.987 -4,6 -4.068,9.035 -9.568,17.702 -16.5,26 -1.37,3.491 -2.87,6.825 -4.5,10 -3.426,1.576 -6.76,3.409 -10,5.5 -2.906,1.318 -5.906,1.652 -9,1 6.37,-4.878 12.203,-10.378 17.5,-16.5 8.006,-10.687 15.506,-21.687 22.5,-33 1.531,-0.921 2.865,-0.588 4,1 z"
       fill="#a17020"
       id="path190" />
    <path
       d="m 880.5,450.5 c 2.524,1.427 5.19,2.594 8,3.5 19.779,4.39 39.779,6.89 60,7.5 0.282,1.278 0.949,2.278 2,3 -2.152,0.577 -2.485,1.744 -1,3.5 9.161,1.082 18.161,2.582 27,4.5 7.183,-0.463 14.183,-1.797 21,-4 0.586,0.209 1.086,0.543 1.5,1 1.54,4.746 2.71,9.579 3.5,14.5 6.76,10.85 9.26,22.683 7.5,35.5 -1.33,2 -2.67,4 -4,6 -1.59,6.94 -2.75,13.94 -3.5,21 -1.21,-5.361 -2.539,-10.694 -4,-16 0.322,-7.892 -0.845,-15.558 -3.5,-23 -0.641,-2.313 -1.974,-3.98 -4,-5 -0.772,0.145 -1.439,0.478 -2,1 -0.449,7.719 -1.282,15.386 -2.5,23 -2.276,0.256 -3.443,1.59 -3.5,4 -2.374,11.494 -5.374,22.828 -9,34 -6.107,9.107 -13.274,17.273 -21.5,24.5 -2.333,1 -4.667,2 -7,3 -6.809,-1.261 -13.642,-2.761 -20.5,-4.5 -3.992,-0.07 -5.492,1.93 -4.5,6 -4.605,-1.971 -8.938,-4.471 -13,-7.5 -1.903,-0.774 -3.57,-0.44 -5,1 13.613,5.445 23.947,14.612 31,27.5 1.289,25.337 1.123,50.67 -0.5,76 -0.14,2.543 -0.806,4.877 -2,7 -0.276,29.505 -0.776,59.005 -1.5,88.5 0.121,5.681 0.454,11.348 1,17 -1.179,12.906 -2.846,25.74 -5,38.5 -1.291,-0.237 -2.291,0.096 -3,1 -0.624,0.417 -0.957,1.084 -1,2 0.247,1.213 0.914,1.88 2,2 v 3 c 2.198,-0.38 3.865,0.287 5,2 v 1 c -1,0.333 -1.667,1 -2,2 -2.627,0.592 -5.294,0.925 -8,1 0.38,2.198 -0.287,3.865 -2,5 -0.617,-0.111 -1.117,-0.444 -1.5,-1 -0.333,-2 -0.667,-4 -1,-6 -1.902,4.239 -4.235,8.239 -7,12 -1.11,1.537 -2.61,2.203 -4.5,2 -0.16,-1.699 0.006,-3.366 0.5,-5 2.194,-3.054 3.861,-6.388 5,-10 0.226,-4.326 1.059,-8.493 2.5,-12.5 -5.614,-16.504 -11.447,-33.004 -17.5,-49.5 -2.355,-10.755 -5.022,-21.422 -8,-32 -2.863,-5.387 -4.863,-11.053 -6,-17 -1.613,-4.715 -4.28,-5.715 -8,-3 -1.291,-15.703 -2.957,-31.369 -5,-47 0.145,-3.423 -1.355,-5.423 -4.5,-6 0.322,2.222 -0.345,4.056 -2,5.5 -3.427,1.796 -6.594,3.963 -9.5,6.5 2.882,-12.67 6.216,-25.336 10,-38 1.323,-14.299 1.823,-28.633 1.5,-43 v -4 h 3 c -1.526,-33.315 -2.026,-66.649 -1.5,-100 0.98,-14.917 4.313,-29.25 10,-43 4.874,-3.024 7.374,-7.357 7.5,-13 h -4 c 0.081,-3.013 1.414,-5.013 4,-6 z"
       fill="#d9982f"
       id="path192" />
    <path
       d="m 1016.5,499.5 c -0.97,7.914 -1.3,15.914 -1,24 -1.11,0.057 -2.11,0.39 -3,1 -0.32,-1.548 -1.32,-2.215 -3,-2 -2.15,13.24 -3.15,26.573 -3,40 -1.51,13.469 -2.51,27.136 -3,41 -3.01,24.295 -5.844,48.628 -8.5,73 -5.978,32.28 -14.144,63.28 -24.5,93 2.885,-13.831 5.885,-27.665 9,-41.5 -0.07,-0.765 -0.403,-1.265 -1,-1.5 0.726,-2.679 1.559,-5.346 2.5,-8 0.333,0.667 0.667,1.333 1,2 5.787,-17.6 9.787,-35.6 12,-54 0.5,-7.326 0.666,-14.659 0.5,-22 h 3 v -34 c 2.58,-21.131 4.25,-42.464 5,-64 0.75,-7.06 1.91,-14.06 3.5,-21 1.33,-2 2.67,-4 4,-6 1.76,-12.817 -0.74,-24.65 -7.5,-35.5 -0.79,-4.921 -1.96,-9.754 -3.5,-14.5 -0.414,-0.457 -0.914,-0.791 -1.5,-1 -6.817,2.203 -13.817,3.537 -21,4 -8.839,-1.918 -17.839,-3.418 -27,-4.5 -1.485,-1.756 -1.152,-2.923 1,-3.5 6.306,2.207 12.64,2.541 19,1 3.12,-0.344 5.953,0.323 8.5,2 3.293,-1.056 6.126,-2.723 8.5,-5 4.433,-0.259 8.1,-2.093 11,-5.5 3.26,-1.474 6.59,-2.64 10,-3.5 1.75,11.182 5.42,21.682 11,31.5 -1.44,4.727 -2.11,9.56 -2,14.5 z"
       fill="#daa95a"
       id="path194" />
    <path
       d="m 1011.5,445.5 c 5.77,17.703 14.77,33.536 27,47.5 -4.73,0.048 -9.4,-0.452 -14,-1.5 -8.07,-14.681 -13.9,-30.347 -17.5,-47 -2.05,4.056 -4.88,7.556 -8.5,10.5 -3.907,2.759 -7.907,5.259 -12,7.5 -2.374,2.277 -5.207,3.944 -8.5,5 -2.547,-1.677 -5.38,-2.344 -8.5,-2 -3.999,0.409 -7.666,-0.425 -11,-2.5 9.512,0.993 17.845,-1.507 25,-7.5 0,-0.667 0.333,-1 1,-1 7.329,-2.998 14.329,-6.498 21,-10.5 1,-0.167 2,-0.333 3,-0.5 1.53,0.14 2.53,0.807 3,2 z"
       fill="#e5cca3"
       id="path196" />
    <path
       d="m 983.5,455.5 c -7.155,5.993 -15.488,8.493 -25,7.5 3.334,2.075 7.001,2.909 11,2.5 -6.36,1.541 -12.694,1.207 -19,-1 -1.051,-0.722 -1.718,-1.722 -2,-3 12.109,0.324 23.776,-1.676 35,-6 z"
       fill="#d9b479"
       id="path198" />
    <path
       d="m 876.5,456.5 h 4 c -0.126,5.643 -2.626,9.976 -7.5,13 -5.687,13.75 -9.02,28.083 -10,43 -0.526,33.351 -0.026,66.685 1.5,100 h -3 v 4 c -2.748,-24.575 -5.248,-49.242 -7.5,-74 -0.667,-13 -0.667,-26 0,-39 0.2,-3.234 1.033,-6.234 2.5,-9 -0.043,-0.916 -0.376,-1.583 -1,-2 1.63,-3.175 3.13,-6.509 4.5,-10 6.932,-8.298 12.432,-16.965 16.5,-26 z"
       fill="#b6832f"
       id="path200" />
    <path
       d="m 1024.5,491.5 c -1.61,7.259 -2.94,14.593 -4,22 -0.96,-5.502 -1.79,-11.169 -2.5,-17 -0.23,1.237 -0.73,2.237 -1.5,3 -0.11,-4.94 0.56,-9.773 2,-14.5 -5.58,-9.818 -9.25,-20.318 -11,-31.5 -3.41,0.86 -6.74,2.026 -10,3.5 -2.9,3.407 -6.567,5.241 -11,5.5 4.093,-2.241 8.093,-4.741 12,-7.5 3.62,-2.944 6.45,-6.444 8.5,-10.5 3.6,16.653 9.43,32.319 17.5,47 z"
       fill="#e2c18b"
       id="path202" />
    <path
       d="m 678.5,495.5 c 1.025,0.397 1.192,1.063 0.5,2 -3.333,2.667 -6.667,5.333 -10,8 -0.667,-0.667 -0.667,-1.333 0,-2 3.358,-2.531 6.524,-5.198 9.5,-8 z"
       opacity="0.024"
       id="path204" />
    <path
       d="m 1020.5,513.5 c 0.17,10.017 0.33,20.017 0.5,30 -2.37,-6.594 -4.2,-13.26 -5.5,-20 -0.3,-8.086 0.03,-16.086 1,-24 0.77,-0.763 1.27,-1.763 1.5,-3 0.71,5.831 1.54,11.498 2.5,17 z"
       fill="#e7cea5"
       id="path206" />
    <path
       d="m 853.5,588.5 c -4.26,-28.568 -6.26,-57.235 -6,-86 0.815,-1.337 1.982,-2.337 3.5,-3 -2.361,28.439 -1.194,56.772 3.5,85 -0.011,1.545 -0.344,2.878 -1,4 z"
       fill="#a6782c"
       opacity="0.768"
       id="path208" />
    <path
       d="m 998.5,530.5 v 22 c -2.511,14.715 -5.345,29.382 -8.5,44 -2.497,8.661 -5.83,16.995 -10,25 -2.811,4.634 -6.311,8.634 -10.5,12 -1.025,-0.397 -1.192,-1.063 -0.5,-2 4.992,-5.312 8.992,-11.312 12,-18 5.218,-17.976 8.052,-36.309 8.5,-55 1.062,-12.312 1.228,-24.645 0.5,-37 -2.069,8.54 -4.736,16.873 -8,25 0.854,-6.756 2.354,-13.423 4.5,-20 1.218,-7.614 2.051,-15.281 2.5,-23 0.561,-0.522 1.228,-0.855 2,-1 2.026,1.02 3.359,2.687 4,5 2.655,7.442 3.822,15.108 3.5,23 z"
       fill="#e3c493"
       id="path210" />
    <path
       d="m 989.5,558.5 c -4.742,17.546 -9.575,35.212 -14.5,53 -10.367,13.546 -18.867,28.212 -25.5,44 0.575,5.488 1.242,10.821 2,16 -0.065,7.024 0.268,14.024 1,21 0.943,6.644 1.109,13.311 0.5,20 -0.333,-1 -0.667,-2 -1,-3 -0.167,0.667 -0.333,1.333 -0.5,2 2.313,10.58 3.98,21.246 5,32 0.08,7.167 -0.586,13.834 -2,20 -1.007,-2.822 -1.84,-5.822 -2.5,-9 -1.803,-17.283 -2.803,-34.616 -3,-52 -1.974,5.562 -3.474,11.229 -4.5,17 h -3 v 7 c -1.16,-12.493 -1.327,-25.16 -0.5,-38 1.446,-5.107 4.112,-9.44 8,-13 0.748,-2.34 0.248,-4.34 -1.5,-6 0.617,-0.111 1.117,-0.444 1.5,-1 0.667,-2.667 0.667,-5.333 0,-8 -1,-0.667 -2,-1.333 -3,-2 -0.229,-6.702 0.271,-13.369 1.5,-20 -0.167,-2 -0.333,-4 -0.5,-6 -0.278,0.916 -0.778,1.582 -1.5,2 -0.029,-5.71 0.471,-11.377 1.5,-17 7.197,-9.042 14.863,-17.709 23,-26 2.267,-3.201 3.934,-6.534 5,-10 -3.966,2.964 -7.633,6.297 -11,10 -1.339,4.66 -4.505,7.16 -9.5,7.5 -7.333,0.667 -14.667,0.667 -22,0 -4.506,-0.99 -8.506,-2.823 -12,-5.5 -0.992,-4.07 0.508,-6.07 4.5,-6 6.858,1.739 13.691,3.239 20.5,4.5 2.333,-1 4.667,-2 7,-3 8.226,-7.227 15.393,-15.393 21.5,-24.5 3.626,-11.172 6.626,-22.506 9,-34 0.057,-2.41 1.224,-3.744 3.5,-4 -2.146,6.577 -3.646,13.244 -4.5,20 3.264,-8.127 5.931,-16.46 8,-25 0.728,12.355 0.562,24.688 -0.5,37 z"
       fill="#d8a758"
       id="path212" />
    <path
       d="m 1013.5,557.5 c -1.03,11.31 -1.7,22.643 -2,34 -0.02,9.68 -0.35,19.347 -1,29 -1.43,-1.413 -2.43,-3.08 -3,-5 -0.57,-21.423 0.43,-42.756 3,-64 0.9,-1.098 1.73,-1.098 2.5,0 0.5,1.973 0.66,3.973 0.5,6 z"
       fill="#161412"
       id="path214" />
    <path
       d="m 1017.5,563.5 c 1.25,6.091 2.92,12.091 5,18 -1.39,2.146 -2.06,4.479 -2,7 v 5 c -1.45,0.634 -2.11,1.801 -2,3.5 1.07,2.671 1.07,5.171 0,7.5 -0.88,-5.504 -2.38,-10.837 -4.5,-16 -0.85,1.071 -1.69,2.071 -2.5,3 0.3,-11.357 0.97,-22.69 2,-34 0.72,-0.418 1.22,-1.084 1.5,-2 0.28,2.957 1.11,5.623 2.5,8 z"
       fill="#e2cca7"
       id="path216" />
    <path
       d="m 998.5,552.5 c 2.92,29.724 -2.41,58.057 -16,85 -6.508,12.359 -13.508,24.359 -21,36 -1.121,-5.918 -1.288,-11.918 -0.5,-18 1.481,-5.274 2.648,-10.607 3.5,-16 0.915,-2.586 2.582,-4.586 5,-6 4.189,-3.366 7.689,-7.366 10.5,-12 4.17,-8.005 7.503,-16.339 10,-25 3.155,-14.618 5.989,-29.285 8.5,-44 z"
       fill="#dca956"
       id="path218" />
    <path
       d="m 1018.5,604.5 c 3.67,10.835 7.84,21.502 12.5,32 5.97,8.806 12.14,17.472 18.5,26 -0.33,0.333 -0.67,0.667 -1,1 -1.58,-1.14 -3.24,-1.64 -5,-1.5 6.63,4.957 12.96,10.291 19,16 1.58,1.094 3.24,1.928 5,2.5 0.93,0.815 1.93,1.648 3,2.5 -0.56,0.383 -0.89,0.883 -1,1.5 -1.95,0.273 -3.45,-0.393 -4.5,-2 -0.48,0.948 -0.65,1.948 -0.5,3 -4.65,0.674 -6.15,3.341 -4.5,8 1.82,1.249 1.66,2.415 -0.5,3.5 1.57,-0.379 3.07,-0.212 4.5,0.5 5.75,5.832 10.25,12.498 13.5,20 1.72,13.634 4.06,27.134 7,40.5 -0.33,0.333 -0.67,0.667 -1,1 0.43,2.629 1.43,4.962 3,7 -0.62,1.569 -0.96,3.236 -1,5 2.34,16.564 2.34,33.064 0,49.5 -1.33,2.333 -2.67,4.667 -4,7 -3.81,3.961 -8.15,7.461 -13,10.5 -4.86,1.673 -9.86,2.506 -15,2.5 9.34,-3.932 17.17,-9.932 23.5,-18 3.6,-11.388 4.93,-23.055 4,-35 -7.92,-32.413 -18.25,-64.08 -31,-95 -12.1,-21.194 -23.43,-42.861 -34,-65 -4.23,25.412 -6.56,51.079 -7,77 0.63,7.191 1.46,14.357 2.5,21.5 0.19,2.008 -0.47,3.508 -2,4.5 -3.04,-9.412 -4.71,-19.079 -5,-29 2,-27.003 4,-54.003 6,-81 0.65,-9.653 0.98,-19.32 1,-29 0.81,-0.929 1.65,-1.929 2.5,-3 2.12,5.163 3.62,10.496 4.5,16 z"
       fill="#d9a95b"
       id="path220" />
    <path
       d="m 1017.5,563.5 c 1.28,0.282 2.28,0.949 3,2 5.96,11.612 9.96,23.945 12,37 h -3 c 3.32,10.312 7.49,20.312 12.5,30 5.66,8.49 11.5,16.823 17.5,25 1.67,3.333 3.33,6.667 5,10 -2.65,-2.311 -5.31,-4.644 -8,-7 -4.31,-5.48 -8.81,-10.813 -13.5,-16 -2.75,-7.17 -6.25,-13.837 -10.5,-20 -4.64,-11.909 -8.64,-23.909 -12,-36 -0.06,-2.521 0.61,-4.854 2,-7 -2.08,-5.909 -3.75,-11.909 -5,-18 z"
       fill="#1e1d1a"
       opacity="0.997"
       id="path222" />
    <path
       d="m 1006.5,562.5 c -0.24,33.175 -2.58,66.175 -7,99 -2.603,12.067 -4.27,24.4 -5,37 0.832,12.833 4.499,24.833 11,36 -0.74,0.682 -1.41,1.349 -2,2 -1.33,0.667 -2.67,1.333 -4,2 0.065,-0.438 -0.101,-0.772 -0.5,-1 -6.33,10.731 -7.663,10.398 -4,-1 0.667,-5.333 0.667,-10.667 0,-16 -5.656,23.809 -14.156,46.475 -25.5,68 0.897,0.169 1.897,0.502 3,1 -5.323,12.136 -10.157,24.469 -14.5,37 -1.328,4.942 -1.661,9.942 -1,15 0.464,-0.594 0.631,-1.261 0.5,-2 1.227,3.065 3.393,5.399 6.5,7 l 1.5,6 c -0.247,1.213 -0.914,1.88 -2,2 -0.732,-1.308 -1.566,-2.642 -2.5,-4 0.64,7.094 -2.526,10.427 -9.5,10 0.315,-3.871 -0.018,-7.538 -1,-11 0.672,-0.767 1.505,-1.434 2.5,-2 -0.339,-18.962 1.827,-37.629 6.5,-56 -2.44,-9.198 -4.106,-18.532 -5,-28 1.414,-6.166 2.08,-12.833 2,-20 2.303,13.872 4.637,27.872 7,42 h 3 c 0.916,-5.551 2.25,-10.885 4,-16 10.356,-29.72 18.522,-60.72 24.5,-93 2.656,-24.372 5.49,-48.705 8.5,-73 0.49,-13.864 1.49,-27.531 3,-41 z"
       fill="#daae65"
       id="path224" />
    <path
       d="m 1012.5,524.5 c -0.46,9.028 -1.13,18.028 -2,27 -2.57,21.244 -3.57,42.577 -3,64 -2.6,28.876 -5.26,57.876 -8,87 -0.304,3.022 -0.804,6.022 -1.5,9 -0.757,-16.711 -0.257,-33.377 1.5,-50 4.42,-32.825 6.76,-65.825 7,-99 -0.15,-13.427 0.85,-26.76 3,-40 1.68,-0.215 2.68,0.452 3,2 z"
       fill="#e3cba3"
       id="path226" />
    <path
       d="m 1020.5,593.5 c 2.19,8.738 4.69,17.404 7.5,26 0.66,2.486 2.16,4.153 4.5,5 4.25,6.163 7.75,12.83 10.5,20 4.69,5.187 9.19,10.52 13.5,16 2.69,2.356 5.35,4.689 8,7 1.67,2 3.33,4 5,6 -2.43,-0.712 -4.76,-1.712 -7,-3 -0.33,0.333 -0.67,0.667 -1,1 3.58,1.922 5.58,4.922 6,9 -1.76,-0.572 -3.42,-1.406 -5,-2.5 -6.04,-5.709 -12.37,-11.043 -19,-16 1.76,-0.14 3.42,0.36 5,1.5 0.33,-0.333 0.67,-0.667 1,-1 -6.36,-8.528 -12.53,-17.194 -18.5,-26 -4.66,-10.498 -8.83,-21.165 -12.5,-32 1.07,-2.329 1.07,-4.829 0,-7.5 -0.11,-1.699 0.55,-2.866 2,-3.5 z"
       fill="#e1bd84"
       id="path228" />
    <path
       d="m 989.5,558.5 c -0.448,18.691 -3.282,37.024 -8.5,55 -3.008,6.688 -7.008,12.688 -12,18 -0.692,0.937 -0.525,1.603 0.5,2 -2.418,1.414 -4.085,3.414 -5,6 -3.198,4.743 -5.031,10.076 -5.5,16 -3.346,5.021 -5.846,10.354 -7.5,16 -0.758,-5.179 -1.425,-10.512 -2,-16 6.633,-15.788 15.133,-30.454 25.5,-44 4.925,-17.788 9.758,-35.454 14.5,-53 z"
       fill="#e4c086"
       id="path230" />
    <path
       d="m 1020.5,588.5 c 3.36,12.091 7.36,24.091 12,36 -2.34,-0.847 -3.84,-2.514 -4.5,-5 -2.81,-8.596 -5.31,-17.262 -7.5,-26 z"
       fill="#cfa25a"
       id="path232" />
    <path
       d="m 933.5,614.5 c 3.942,4.212 6.609,9.212 8,15 -1.665,10.732 -2.832,21.399 -3.5,32 1.682,4.352 4.182,8.186 7.5,11.5 -3.982,4.126 -6.815,8.959 -8.5,14.5 1.142,36.309 1.475,72.642 1,109 -0.509,15.444 -2.009,30.777 -4.5,46 h -11 c 0.709,-0.904 1.709,-1.237 3,-1 2.154,-12.76 3.821,-25.594 5,-38.5 -0.546,-5.652 -0.879,-11.319 -1,-17 0.724,-29.495 1.224,-58.995 1.5,-88.5 1.194,-2.123 1.86,-4.457 2,-7 1.623,-25.33 1.789,-50.663 0.5,-76 z"
       fill="#d6a453"
       id="path234" />
    <path
       d="m 902.5,855.5 c -0.304,-0.65 -0.637,-1.317 -1,-2 -6.984,-0.777 -13.984,-0.61 -21,0.5 -15.879,3.626 -31.879,6.626 -48,9 -9.994,0.5 -19.994,0.666 -30,0.5 0.935,-7.92 4.935,-13.586 12,-17 0.886,-0.825 1.219,-1.825 1,-3 -4.048,-0.059 -7.215,1.608 -9.5,5 -2.677,4.352 -4.511,9.018 -5.5,14 -3.863,-1.397 -6.53,-3.897 -8,-7.5 0.125,-1.627 0.625,-3.127 1.5,-4.5 L 804.5,840 c -4.644,0.824 -8.644,2.991 -12,6.5 0,-0.667 -0.333,-1 -1,-1 2.67,-5.498 7.003,-8.998 13,-10.5 6.157,-2.728 12.49,-3.228 19,-1.5 0.157,-1.373 -0.01,-2.707 -0.5,-4 -4.859,-4.052 -9.025,-8.718 -12.5,-14 1.67,0.251 3.17,0.918 4.5,2 -0.393,-5.983 -1.059,-11.983 -2,-18 -0.333,-7.667 -0.667,-15.333 -1,-23 -0.822,2.288 -1.489,4.622 -2,7 -2.925,-8.143 -3.258,-16.476 -1,-25 3.186,-15.37 8.353,-30.037 15.5,-44 -1.11,-3.496 -0.61,-6.829 1.5,-10 2.27,-4.598 4.937,-8.931 8,-13 0.333,-2 0.667,-4 1,-6 2.673,-0.834 5.007,-2.167 7,-4 0.945,0.405 1.612,1.072 2,2 2.883,-19.61 5.55,-39.277 8,-59 -4.5,7 -9,14 -13.5,21 1.295,2.939 0.628,5.439 -2,7.5 1.896,1.808 2.396,3.975 1.5,6.5 -22.373,23.767 -34.039,52.101 -35,85 -0.302,12.843 -0.802,25.676 -1.5,38.5 0.777,7.554 1.944,15.054 3.5,22.5 1.085,0.793 2.252,1.46 3.5,2 1.282,1.458 1.282,2.792 0,4 -1.285,-1.952 -2.951,-3.618 -5,-5 -3.414,4.494 -6.581,9.16 -9.5,14 1.623,-8.366 2.79,-16.866 3.5,-25.5 -5.69,-32.036 -3.523,-63.536 6.5,-94.5 1.837,-7.515 4.837,-14.515 9,-21 0.497,-2.31 0.663,-4.643 0.5,-7 -2.97,1.049 -5.97,2.216 -9,3.5 -4.333,0.667 -8.667,0.667 -13,0 8.734,-5.398 16.9,-11.565 24.5,-18.5 7,-7.667 14,-15.333 21,-23 5.679,-8.038 11.346,-16.038 17,-24 2.164,16.244 2.83,32.577 2,49 -3.865,14.095 -8.032,28.095 -12.5,42 6.711,2.611 12.544,0.944 17.5,-5 4.683,17.951 6.683,36.285 6,55 1.356,0.88 2.856,1.214 4.5,1 0.251,-3.679 1.418,-7.013 3.5,-10 5.908,15.631 10.575,31.631 14,48 6.636,17.909 12.47,36.076 17.5,54.5 -0.409,3.96 -1.742,7.46 -4,10.5 z"
       fill="#a97623"
       id="path236" />
    <path
       d="m 997.5,610.5 v 34 h -3 c 0.166,7.341 0,14.674 -0.5,22 -2.213,18.4 -6.213,36.4 -12,54 -0.333,-0.667 -0.667,-1.333 -1,-2 -0.941,2.654 -1.774,5.321 -2.5,8 -4.023,13.449 -8.023,26.782 -12,40 -1.389,-26.663 -2.722,-53.329 -4,-80 -0.164,-2.687 0.003,-5.354 0.5,-8 14.133,-21.94 25.633,-44.606 34.5,-68 z"
       fill="#da9930"
       id="path238" />
    <path
       d="m 998.5,530.5 c 1.461,5.306 2.79,10.639 4,16 -0.75,21.536 -2.42,42.869 -5,64 -8.867,23.394 -20.367,46.06 -34.5,68 -0.497,2.646 -0.664,5.313 -0.5,8 -0.985,-4.134 -1.318,-8.468 -1,-13 7.492,-11.641 14.492,-23.641 21,-36 13.59,-26.943 18.92,-55.276 16,-85 z"
       fill="#dba142"
       id="path240" />
    <path
       d="m 810.5,815.5 c -0.667,-1.333 -1.333,-2.667 -2,-4 1.282,-1.208 1.282,-2.542 0,-4 -1.248,-0.54 -2.415,-1.207 -3.5,-2 -1.556,-7.446 -2.723,-14.946 -3.5,-22.5 0.698,-12.824 1.198,-25.657 1.5,-38.5 0.961,-32.899 12.627,-61.233 35,-85 0.896,-2.525 0.396,-4.692 -1.5,-6.5 2.628,-2.061 3.295,-4.561 2,-7.5 4.5,-7 9,-14 13.5,-21 -2.45,19.723 -5.117,39.39 -8,59 -0.388,-0.928 -1.055,-1.595 -2,-2 -1.993,1.833 -4.327,3.166 -7,4 -0.333,2 -0.667,4 -1,6 -3.063,4.069 -5.73,8.402 -8,13 -2.11,3.171 -2.61,6.504 -1.5,10 -7.147,13.963 -12.314,28.63 -15.5,44 -2.258,8.524 -1.925,16.857 1,25 0.511,-2.378 1.178,-4.712 2,-7 0.333,7.667 0.667,15.333 1,23 0.941,6.017 1.607,12.017 2,18 -1.33,-1.082 -2.83,-1.749 -4.5,-2 z"
       fill="#b78430"
       id="path242" />
    <path
       d="m 1053.5,840.5 c -6.91,2.62 -13.91,4.953 -21,7 h -13 c -14,0.167 -28.004,0 -42,-0.5 -2.155,-1.357 -4.322,-1.524 -6.5,-0.5 -2.181,-1.856 -4.015,-4.023 -5.5,-6.5 -1.399,-0.595 -2.732,-0.428 -4,0.5 -0.333,-0.667 -0.667,-1.333 -1,-2 2.754,-5.177 5.254,-10.51 7.5,-16 8.896,-24.696 18.562,-49.029 29,-73 2.902,-2.24 5.07,-5.073 6.5,-8.5 4,-0.835 7.34,0.331 10,3.5 1,-0.333 1.67,-1 2,-2 -3.07,-3.464 -5.07,-7.464 -6,-12 1.53,-0.992 2.19,-2.492 2,-4.5 -1.04,-7.143 -1.87,-14.309 -2.5,-21.5 0.44,-25.921 2.77,-51.588 7,-77 10.57,22.139 21.9,43.806 34,65 12.75,30.92 23.08,62.587 31,95 0.93,11.945 -0.4,23.612 -4,35 -6.33,8.068 -14.16,14.068 -23.5,18 z"
       fill="#d9992f"
       id="path244" />
    <path
       d="m 1007.5,615.5 c 0.57,1.92 1.57,3.587 3,5 -2,26.997 -4,53.997 -6,81 -1.77,2.623 -2.43,5.623 -2,9 -1.42,-2.52 -2.42,-5.187 -3,-8 2.74,-29.124 5.4,-58.124 8,-87 z"
       fill="#2b2722"
       id="path246" />
    <path
       d="m 947.5,669.5 c -2.87,-2.563 -4.87,-5.73 -6,-9.5 3.119,-8.213 4.452,-16.713 4,-25.5 0.722,-0.418 1.222,-1.084 1.5,-2 0.167,2 0.333,4 0.5,6 -1.229,6.631 -1.729,13.298 -1.5,20 1,0.667 2,1.333 3,2 0.667,2.667 0.667,5.333 0,8 -0.383,0.556 -0.883,0.889 -1.5,1 z"
       fill="#d19431"
       id="path248" />
    <path
       d="m 964.5,639.5 c -0.852,5.393 -2.019,10.726 -3.5,16 -0.788,6.082 -0.621,12.082 0.5,18 -0.318,4.532 0.015,8.866 1,13 1.278,26.671 2.611,53.337 4,80 0.157,1.373 -0.01,2.707 -0.5,4 -4.519,-29.481 -6.852,-59.148 -7,-89 -0.333,-0.667 -0.667,-1.333 -1,-2 -0.266,5.177 -2.099,9.511 -5.5,13 -0.732,-6.976 -1.065,-13.976 -1,-21 1.654,-5.646 4.154,-10.979 7.5,-16 0.469,-5.924 2.302,-11.257 5.5,-16 z"
       fill="#e4c89c"
       id="path250" />
    <path
       d="m 1059.5,657.5 c 9.7,13.689 23.04,20.855 40,21.5 0.95,0.718 1.12,1.551 0.5,2.5 -2.71,2.22 -5.55,4.22 -8.5,6 0.07,-1.527 -0.59,-2.527 -2,-3 0.93,-0.815 1.93,-1.648 3,-2.5 -8.47,-0.767 -16.14,-3.601 -23,-8.5 -1.67,-2 -3.33,-4 -5,-6 -1.67,-3.333 -3.33,-6.667 -5,-10 z"
       fill="#4a4640"
       id="path252" />
    <path
       d="m 790.5,680.5 c 2.559,-0.302 4.893,0.032 7,1 -1.415,0.789 -2.915,1.456 -4.5,2 -1.749,-0.248 -2.582,-1.248 -2.5,-3 z"
       fill="#9b6c1e"
       opacity="0.616"
       id="path254" />
    <path
       d="m 804.5,684.5 c -1.406,-0.473 -2.073,-1.473 -2,-3 0.667,0 1,-0.333 1,-1 4.455,-1.198 4.788,0.135 1,4 z"
       fill="#986a1d"
       opacity="0.718"
       id="path256" />
    <path
       d="m 999.5,661.5 c -1.757,16.623 -2.257,33.289 -1.5,50 0.696,-2.978 1.196,-5.978 1.5,-9 0.58,2.813 1.58,5.48 3,8 0.33,8.792 1.99,17.292 5,25.5 -1.29,0.49 -2.63,0.657 -4,0.5 0.59,-0.651 1.26,-1.318 2,-2 -6.501,-11.167 -10.168,-23.167 -11,-36 0.73,-12.6 2.397,-24.933 5,-37 z"
       fill="#dfbe8a"
       id="path258" />
    <path
       d="m 1089.5,684.5 c 1.41,0.473 2.07,1.473 2,3 -2.42,0.378 -4.75,1.045 -7,2 -3.45,0.233 -4.45,-1.1 -3,-4 2.6,-0.765 5.26,-1.099 8,-1 z"
       fill="#22201d"
       id="path260" />
    <path
       d="m 1069.5,673.5 c 6.86,4.899 14.53,7.733 23,8.5 -1.07,0.852 -2.07,1.685 -3,2.5 -2.74,-0.099 -5.4,0.235 -8,1 -4.51,0.778 -8.51,2.612 -12,5.5 2.17,1.5 4,3.333 5.5,5.5 5.11,7.897 9.94,15.897 14.5,24 3.88,7.091 7.21,14.424 10,22 4.81,12.869 6.81,26.203 6,40 v 1 c -2.45,-16.642 -6.62,-32.975 -12.5,-49 -0.33,1 -0.67,2 -1,3 -5.28,-15.386 -12.78,-29.553 -22.5,-42.5 -0.95,-0.483 -1.95,-0.649 -3,-0.5 1.95,-2.985 2.95,-6.318 3,-10 0.11,-0.617 0.44,-1.117 1,-1.5 -1.07,-0.852 -2.07,-1.685 -3,-2.5 -0.42,-4.078 -2.42,-7.078 -6,-9 0.33,-0.333 0.67,-0.667 1,-1 2.24,1.288 4.57,2.288 7,3 z"
       fill="#e6d2b1"
       id="path262" />
    <path
       d="m 1081.5,685.5 c -1.45,2.9 -0.45,4.233 3,4 -2.31,1.058 -4.64,2.224 -7,3.5 5.65,8.144 10.65,16.644 15,25.5 -1.68,-0.215 -2.68,0.452 -3,2 -4.56,-8.103 -9.39,-16.103 -14.5,-24 -1.5,-2.167 -3.33,-4 -5.5,-5.5 3.49,-2.888 7.49,-4.722 12,-5.5 z"
       fill="#59554d"
       opacity="0.998"
       id="path264" />
    <path
       d="m 854.5,708.5 h 4 c -0.85,7.299 -1.183,14.632 -1,22 -1.322,-0.17 -2.489,0.163 -3.5,1 2.565,13.368 6.565,26.368 12,39 5.333,10.667 10.667,21.333 16,32 2.845,10.379 5.845,20.712 9,31 1.325,6.023 -0.175,11.189 -4.5,15.5 -11.401,1.947 -22.735,4.28 -34,7 -13.007,0.63 -26.007,0.963 -39,1 -1.134,-1.016 -0.801,-1.683 1,-2 -3.825,-1.768 -3.825,-3.768 0,-6 6.273,-1.202 12.273,-3.202 18,-6 1.48,-1.299 2.146,-2.966 2,-5 -0.943,-2.886 -0.943,-5.72 0,-8.5 -1.128,-0.762 -2.295,-1.429 -3.5,-2 -4.287,-10.205 -8.954,-20.205 -14,-30 -1.739,-28.293 4.094,-54.959 17.5,-80 2.067,-0.634 3.9,-1.634 5.5,-3 1.726,1.076 3.559,1.243 5.5,0.5 3.461,-1.643 6.461,-3.81 9,-6.5 z"
       fill="#d9982e"
       id="path266" />
    <path
       d="m 966.5,766.5 c 3.977,-13.218 7.977,-26.551 12,-40 0.597,0.235 0.93,0.735 1,1.5 -3.115,13.835 -6.115,27.669 -9,41.5 -1.75,5.115 -3.084,10.449 -4,16 h -3 c -2.363,-14.128 -4.697,-28.128 -7,-42 -1.02,-10.754 -2.687,-21.42 -5,-32 0.167,-0.667 0.333,-1.333 0.5,-2 0.333,1 0.667,2 1,3 0.609,-6.689 0.443,-13.356 -0.5,-20 3.401,-3.489 5.234,-7.823 5.5,-13 0.333,0.667 0.667,1.333 1,2 0.148,29.852 2.481,59.519 7,89 0.49,-1.293 0.657,-2.627 0.5,-4 z"
       fill="#e3be84"
       id="path268" />
    <path
       d="m 999.5,738.5 c -0.56,2.301 -1.06,4.634 -1.5,7 -1.667,0.667 -3.333,1.333 -5,2 -6.883,18.647 -14.55,36.98 -23,55 -4.746,12.154 -8.913,24.488 -12.5,37 0.131,0.739 -0.036,1.406 -0.5,2 -0.661,-5.058 -0.328,-10.058 1,-15 4.343,-12.531 9.177,-24.864 14.5,-37 -1.103,-0.498 -2.103,-0.831 -3,-1 11.344,-21.525 19.844,-44.191 25.5,-68 0.667,5.333 0.667,10.667 0,16 -3.663,11.398 -2.33,11.731 4,1 0.399,0.228 0.565,0.562 0.5,1 z"
       fill="#e2cba5"
       id="path270" />
    <path
       d="m 1077.5,717.5 c 15.1,27.89 21.76,57.723 20,89.5 -4.6,4.102 -8.6,8.602 -12,13.5 2.34,-16.436 2.34,-32.936 0,-49.5 0.04,-1.764 0.38,-3.431 1,-5 -1.57,-2.038 -2.57,-4.371 -3,-7 0.33,-0.333 0.67,-0.667 1,-1 -2.94,-13.366 -5.28,-26.866 -7,-40.5 z"
       fill="#ddb779"
       id="path272" />
    <path
       d="m 1092.5,718.5 c 3.17,5.016 5.84,10.349 8,16 0.01,2.047 0.34,4.047 1,6 -0.25,1.213 -0.91,1.88 -2,2 -2.79,-7.576 -6.12,-14.909 -10,-22 0.32,-1.548 1.32,-2.215 3,-2 z"
       fill="#322f2b"
       id="path274" />
    <path
       d="m 954.5,763.5 c 0.894,9.468 2.56,18.802 5,28 -4.673,18.371 -6.839,37.038 -6.5,56 -0.995,0.566 -1.828,1.233 -2.5,2 -1.523,3.13 -2.189,6.463 -2,10 h -6 c 0.165,-3.682 -10e-4,-7.348 -0.5,-11 -1.419,-2.796 -3.585,-4.796 -6.5,-6 1.673,-3.852 2.839,-7.852 3.5,-12 3.487,-34.601 4.321,-69.268 2.5,-104 v -7 h 3 c 1.026,-5.771 2.526,-11.438 4.5,-17 0.197,17.384 1.197,34.717 3,52 0.66,3.178 1.493,6.178 2.5,9 z"
       fill="#d89934"
       id="path276" />
    <path
       d="m 1100.5,734.5 c 3.56,7.202 6.06,14.868 7.5,23 0.85,12.832 2.69,25.498 5.5,38 -1,0.03 -1.66,-0.47 -2,-1.5 -1.88,-4.388 -3.38,-8.888 -4.5,-13.5 -0.28,0.916 -0.78,1.582 -1.5,2 0.81,-13.797 -1.19,-27.131 -6,-40 1.09,-0.12 1.75,-0.787 2,-2 -0.66,-1.953 -0.99,-3.953 -1,-6 z"
       fill="#504c46"
       id="path278" />
    <path
       d="m 1069.5,684.5 c -0.05,3.682 -1.05,7.015 -3,10 1.05,-0.149 2.05,0.017 3,0.5 9.72,12.947 17.22,27.114 22.5,42.5 0.33,-1 0.67,-2 1,-3 5.88,16.025 10.05,32.358 12.5,49 -0.16,4.082 0.34,8.082 1.5,12 3.03,9.05 6.86,17.717 11.5,26 -0.17,0.333 -0.33,0.667 -0.5,1 -4.17,-2.833 -8.33,-5.667 -12.5,-8.5 -2.1,-2.042 -3.27,-4.542 -3.5,-7.5 -6,7.99 -11.5,16.324 -16.5,25 0.6,1.295 1.1,2.628 1.5,4 1.01,-0.837 2.18,-1.17 3.5,-1 5.72,2.86 11.05,5.527 16,8 2.95,9.206 1.28,10.04 -5,2.5 -6.43,-4.09 -13.43,-6.256 -21,-6.5 -1.45,-3.819 -1.12,-7.485 1,-11 1.33,-2.333 2.67,-4.667 4,-7 3.4,-4.898 7.4,-9.398 12,-13.5 1.76,-31.777 -4.9,-61.61 -20,-89.5 -3.25,-7.502 -7.75,-14.168 -13.5,-20 -1.43,-0.712 -2.93,-0.879 -4.5,-0.5 2.16,-1.085 2.32,-2.251 0.5,-3.5 -1.65,-4.659 -0.15,-7.326 4.5,-8 -0.15,-1.052 0.02,-2.052 0.5,-3 1.05,1.607 2.55,2.273 4.5,2 z"
       fill="#e1c391"
       id="path280" />
    <path
       d="m 786.5,828.5 c 0.418,0.722 1.084,1.222 2,1.5 -13.428,1.584 -26.428,4.75 -39,9.5 0.365,-3.976 -1.135,-4.976 -4.5,-3 -4.222,-2.386 -8.556,-2.386 -13,0 -1.882,-0.593 -2.882,-1.927 -3,-4 -10.581,5.707 -21.081,11.54 -31.5,17.5 -5.512,4.846 -11.012,9.68 -16.5,14.5 -2.045,-1.138 -2.712,-2.805 -2,-5 3.534,-3.869 7.367,-7.369 11.5,-10.5 -1.607,0.019 -3.274,0.185 -5,0.5 5.533,-5.021 11.533,-9.521 18,-13.5 28.042,-16.624 57.709,-29.457 89,-38.5 0.841,4.65 0.675,9.316 -0.5,14 -1.946,5.671 -3.78,11.338 -5.5,17 z"
       fill="#a77521"
       id="path282" />
    <path
       d="m 790.5,830.5 c -0.333,-0.667 -0.667,-1.333 -1,-2 3.231,-1.72 6.064,-4.053 8.5,-7 1.599,-2.878 3.433,-5.544 5.5,-8 4.109,4.701 8.109,9.535 12,14.5 -8.188,2.117 -16.521,2.95 -25,2.5 z"
       fill="#a57320"
       id="path284" />
    <path
       d="m 1004.5,701.5 c 0.29,9.921 1.96,19.588 5,29 0.93,4.536 2.93,8.536 6,12 -0.33,1 -1,1.667 -2,2 -2.66,-3.169 -6,-4.335 -10,-3.5 -1.43,3.427 -3.598,6.26 -6.5,8.5 -10.438,23.971 -20.104,48.304 -29,73 -2.246,5.49 -4.746,10.823 -7.5,16 0.333,0.667 0.667,1.333 1,2 1.268,-0.928 2.601,-1.095 4,-0.5 1.485,2.477 3.319,4.644 5.5,6.5 2.178,-1.024 4.345,-0.857 6.5,0.5 13.996,0.5 28,0.667 42,0.5 3.14,0.821 6.47,1.321 10,1.5 -14.96,1.355 -29.964,1.855 -45,1.5 -4.652,0.498 -9.319,0.831 -14,1 -0.109,4.106 -2.109,6.773 -6,8 0.134,-1.792 -0.199,-3.458 -1,-5 1.086,-0.12 1.753,-0.787 2,-2 l -1.5,-6 c -3.107,-1.601 -5.273,-3.935 -6.5,-7 3.587,-12.512 7.754,-24.846 12.5,-37 8.45,-18.02 16.117,-36.353 23,-55 1.667,-0.667 3.333,-1.333 5,-2 0.44,-2.366 0.94,-4.699 1.5,-7 1.33,-0.667 2.67,-1.333 4,-2 1.37,0.157 2.71,-0.01 4,-0.5 -3.01,-8.208 -4.67,-16.708 -5,-25.5 -0.43,-3.377 0.23,-6.377 2,-9 z"
       fill="#151310"
       opacity="0.993"
       id="path286" />
    <path
       d="m 1113.5,795.5 c 3.3,10.745 7.3,21.245 12,31.5 -0.51,1.169 -1.34,2.002 -2.5,2.5 -8.36,-3.025 -15.7,-7.692 -22,-14 -3.54,4.567 -6.7,9.401 -9.5,14.5 2.21,0.191 4.21,0.691 6,1.5 -2.29,-0.256 -4.46,0.077 -6.5,1 -0.67,-2.528 -1.5,-2.528 -2.5,0 0.74,0.682 1.41,1.349 2,2 -1.32,-0.17 -2.49,0.163 -3.5,1 -0.4,-1.372 -0.9,-2.705 -1.5,-4 5,-8.676 10.5,-17.01 16.5,-25 0.23,2.958 1.4,5.458 3.5,7.5 4.17,2.833 8.33,5.667 12.5,8.5 0.17,-0.333 0.33,-0.667 0.5,-1 -4.64,-8.283 -8.47,-16.95 -11.5,-26 -1.16,-3.918 -1.66,-7.918 -1.5,-12 v -1 c 0.72,-0.418 1.22,-1.084 1.5,-2 1.12,4.612 2.62,9.112 4.5,13.5 0.34,1.03 1,1.53 2,1.5 z"
       fill="#322f2b"
       opacity="0.973"
       id="path288" />
    <path
       d="m 1097.5,831.5 c 4.38,0.348 8.38,1.682 12,4 0.16,1.699 -0.01,3.366 -0.5,5 -0.42,1.256 -1.25,1.923 -2.5,2 -4.95,-2.473 -10.28,-5.14 -16,-8 -0.59,-0.651 -1.26,-1.318 -2,-2 1,-2.528 1.83,-2.528 2.5,0 2.04,-0.923 4.21,-1.256 6.5,-1 z"
       fill="#1e1c19"
       id="path290" />
    <path
       d="m 790.5,832.5 h 5 v 1 c -0.667,0 -1,0.333 -1,1 -0.667,0 -1,0.333 -1,1 -1,0.333 -1.667,1 -2,2 -10.538,4.098 -21.205,7.931 -32,11.5 -7.109,2.72 -13.775,6.22 -20,10.5 -1.576,3.738 -3.743,7.071 -6.5,10 -7,7.667 -14,15.333 -21,23 -4.677,15.721 -8.177,31.721 -10.5,48 0.889,2.779 2.056,5.445 3.5,8 3.053,3.387 5.72,7.053 8,11 1.4,0.616 2.9,0.949 4.5,1 9.477,-1.536 18.81,-3.702 28,-6.5 15.062,-5.409 30.062,-10.909 45,-16.5 -4.64,3.973 -8.973,8.306 -13,13 -5.496,4.663 -10.496,9.83 -15,15.5 -24.046,9.226 -47.713,8.226 -71,-3 -14.133,-10.058 -18.966,-23.558 -14.5,-40.5 2.324,-7.839 5.49,-15.173 9.5,-22 4.881,-7.06 10.381,-13.726 16.5,-20 0.579,-1.428 0.412,-2.762 -0.5,-4 6.877,-8.414 14.877,-15.414 24,-21 19.89,-11.608 41.223,-19.275 64,-23 z"
       fill="#e7dcca"
       opacity="0.189"
       id="path292" />
    <path
       d="m 786.5,828.5 h 3 c 0.333,0.667 0.667,1.333 1,2 -1.006,0.438 -1.006,1.104 0,2 -22.777,3.725 -44.11,11.392 -64,23 -1.88,0.271 -3.213,-0.396 -4,-2 0.667,0 1,-0.333 1,-1 8.388,-4.861 17.054,-9.194 26,-13 12.572,-4.75 25.572,-7.916 39,-9.5 -0.916,-0.278 -1.582,-0.778 -2,-1.5 z"
       fill="#201d1a"
       opacity="0.998"
       id="path294" />
    <path
       d="m 749.5,839.5 c -8.946,3.806 -17.612,8.139 -26,13 -6.517,-0.663 -11.85,1.504 -16,6.5 -11.401,10.355 -20.734,22.188 -28,35.5 -0.996,-0.086 -1.829,0.248 -2.5,1 -4.016,8.031 -8.016,16.031 -12,24 -0.972,3.597 -1.472,7.264 -1.5,11 0.408,5.705 1.075,11.372 2,17 -2.461,8.381 -3.294,17.047 -2.5,26 l 1,-1 c 4.445,2.804 8.945,5.471 13.5,8 0.554,4 1.887,7.666 4,11 -2.093,-0.545 -4.093,-1.378 -6,-2.5 -27.777,-19.056 -38.943,-45.222 -33.5,-78.5 8.622,-24.597 23.122,-44.931 43.5,-61 1.726,-0.315 3.393,-0.481 5,-0.5 -4.133,3.131 -7.966,6.631 -11.5,10.5 -0.712,2.195 -0.045,3.862 2,5 5.488,-4.82 10.988,-9.654 16.5,-14.5 10.419,-5.96 20.919,-11.793 31.5,-17.5 0.118,2.073 1.118,3.407 3,4 4.444,-2.386 8.778,-2.386 13,0 3.365,-1.976 4.865,-0.976 4.5,3 z"
       fill="#d89831"
       opacity="0.999"
       id="path296" />
    <path
       d="m 1081.5,827.5 c -2.12,3.515 -2.45,7.181 -1,11 -2.36,-0.163 -4.69,0.003 -7,0.5 0.33,0.333 0.67,0.667 1,1 6.45,1.196 12.78,2.863 19,5 3.68,1.841 7.02,4.174 10,7 -0.83,0.915 -1.83,1.581 -3,2 -10.02,1.766 -20.02,1.599 -30,-0.5 -10.96,-3.328 -22.29,-4.995 -34,-5 -1.6,0.268 -2.93,-0.066 -4,-1 7.09,-2.047 14.09,-4.38 21,-7 5.14,0.006 10.14,-0.827 15,-2.5 4.85,-3.039 9.19,-6.539 13,-10.5 z"
       fill="#d7b174"
       id="path298" />
    <path
       d="m 923.5,846.5 c 3.018,-0.165 6.018,0.002 9,0.5 2.176,0.163 4.009,0.996 5.5,2.5 0.701,3.428 0.368,6.762 -1,10 -2.274,1.311 -4.44,1.311 -6.5,0 0.536,-3.198 -0.131,-5.865 -2,-8 -1.135,-1.713 -2.802,-2.38 -5,-2 z"
       fill="#d6a554"
       id="path300" />
    <path
       d="m 1109.5,835.5 c 7.6,11.483 4.6,18.816 -9,22 -8.7,0.081 -17.37,-0.419 -26,-1.5 -2.42,-0.29 -3.75,-1.124 -4,-2.5 9.98,2.099 19.98,2.266 30,0.5 1.17,-0.419 2.17,-1.085 3,-2 -2.98,-2.826 -6.32,-5.159 -10,-7 -6.22,-2.137 -12.55,-3.804 -19,-5 -0.33,-0.333 -0.67,-0.667 -1,-1 2.31,-0.497 4.64,-0.663 7,-0.5 7.57,0.244 14.57,2.41 21,6.5 6.28,7.54 7.95,6.706 5,-2.5 1.25,-0.077 2.08,-0.744 2.5,-2 0.49,-1.634 0.66,-3.301 0.5,-5 z"
       fill="#393630"
       id="path302" />
    <path
       d="m 1019.5,847.5 h 13 c 1.07,0.934 2.4,1.268 4,1 -0.45,0.958 -1.12,1.792 -2,2.5 -5.99,0.499 -11.99,0.666 -18,0.5 -10.85,0.328 -21.513,-0.006 -32,-1 15.036,0.355 30.04,-0.145 45,-1.5 -3.53,-0.179 -6.86,-0.679 -10,-1.5 z"
       fill="#3a362e"
       opacity="0.981"
       id="path304" />
    <path
       d="m 1036.5,848.5 c 11.71,0.005 23.04,1.672 34,5 0.25,1.376 1.58,2.21 4,2.5 8.63,1.081 17.3,1.581 26,1.5 -3.74,1.422 -7.74,2.089 -12,2 -11.76,-1.183 -23.43,-3.016 -35,-5.5 -12.49,-0.886 -24.82,-1.719 -37,-2.5 6.01,0.166 12.01,-10e-4 18,-0.5 0.88,-0.708 1.55,-1.542 2,-2.5 z"
       fill="#59534b"
       id="path306" />
    <path
       d="m 928.5,852.5 v -1 c 1.869,2.135 2.536,4.802 2,8 -0.667,-2.333 -1.333,-4.667 -2,-7 z"
       fill="#6a522b"
       id="path308" />
    <path
       d="m 926.5,854.5 c 0.346,3.102 -0.321,5.935 -2,8.5 -3.317,0.977 -5.984,0.144 -8,-2.5 1.713,-1.135 2.38,-2.802 2,-5 2.706,-0.075 5.373,-0.408 8,-1 z"
       fill="#cd9e51"
       id="path310" />
    <path
       d="m 723.5,852.5 c 0,0.667 -0.333,1 -1,1 -14.74,9.739 -26.74,22.072 -36,37 -1.863,2.205 -4.197,3.539 -7,4 7.266,-13.312 16.599,-25.145 28,-35.5 4.15,-4.996 9.483,-7.163 16,-6.5 z"
       fill="#dbac5f"
       id="path312" />
    <path
       d="m 911.5,864.5 c 2.625,0.966 2.625,1.966 0,3 -0.587,-0.733 -0.587,-1.733 0,-3 z"
       fill="#90703b"
       id="path314" />
    <path
       d="m 702.5,876.5 c 0.912,1.238 1.079,2.572 0.5,4 -6.119,6.274 -11.619,12.94 -16.5,20 3.848,-9.041 9.181,-17.041 16,-24 z"
       fill="#dfc7a1"
       opacity="0.99"
       id="path316" />
    <path
       d="m 686.5,890.5 c -1.987,3.973 -3.987,7.973 -6,12 -6.011,5.232 -9.844,11.899 -11.5,20 -1.338,10.592 -0.338,20.926 3,31 2.016,2.184 4.183,4.184 6.5,6 -1.2,0.792 -2.533,0.792 -4,0 -1.517,-0.011 -2.684,-0.677 -3.5,-2 -2.129,-3.267 -3.962,-6.601 -5.5,-10 -0.925,-5.628 -1.592,-11.295 -2,-17 0.028,-3.736 0.528,-7.403 1.5,-11 3.984,-7.969 7.984,-15.969 12,-24 0.671,-0.752 1.504,-1.086 2.5,-1 2.803,-0.461 5.137,-1.795 7,-4 z"
       fill="#ecd5af"
       id="path318" />
    <path
       d="m 695.5,1001.5 h 8 c 26.489,0.3 52.156,-4.698 77,-15 13.746,-4.107 24.912,-11.773 33.5,-23 2.806,-6.946 6.139,-13.612 10,-20 4.401,-13.414 -0.099,-18.747 -13.5,-16 -4.685,0.846 -9.019,2.513 -13,5 5.445,-6.713 10.779,-13.546 16,-20.5 12.717,-5.223 20.551,-1.056 23.5,12.5 2.105,12.1 0.105,23.433 -6,34 -26.725,41.61 -64.891,61.45 -114.5,59.5 -7.757,-0.69 -14.257,-3.86 -19.5,-9.5 -1.202,-2.18 -1.702,-4.51 -1.5,-7 z"
       fill="#e6dbc9"
       opacity="0.14"
       id="path320" />
    <path
       d="m 796.5,933.5 c -0.473,1.406 -1.473,2.073 -3,2 0.473,-1.406 1.473,-2.073 3,-2 z"
       fill="#a19a8d"
       opacity="0.024"
       id="path322" />
    <path
       d="m 810.5,933.5 c 3.018,-0.165 6.018,0.002 9,0.5 1.074,0.739 1.741,1.739 2,3 -3.039,12.25 -9.039,22.75 -18,31.5 0.167,0.333 0.333,0.667 0.5,1 l 6,-6 c -1.964,4.312 -5.131,7.812 -9.5,10.5 -7.09,3.216 -14.09,6.383 -21,9.5 -14.035,5.092 -28.368,9.092 -43,12 -8.162,-1.561 -16.496,-2.894 -25,-4 11.484,-0.081 23.151,-0.247 35,-0.5 19.182,-4.506 36.015,-13.339 50.5,-26.5 4.991,-5.982 9.491,-12.315 13.5,-19 -7.683,1.86 -14.35,5.86 -20,12 -1.544,0.203 -2.878,0.87 -4,2 -1.288,-1.975 -2.955,-1.975 -5,0 -0.683,-0.363 -1.35,-0.696 -2,-1 2.36,-3.027 5.027,-5.694 8,-8 7.162,-6.408 14.829,-12.074 23,-17 z"
       fill="#e8d3b1"
       id="path324" />
    <path
       d="m 810.5,927.5 c 13.401,-2.747 17.901,2.586 13.5,16 -3.861,6.388 -7.194,13.054 -10,20 -8.588,11.227 -19.754,18.893 -33.5,23 -0.086,-0.996 0.248,-1.829 1,-2.5 -0.594,-0.464 -1.261,-0.631 -2,-0.5 6.91,-3.117 13.91,-6.284 21,-9.5 4.369,-2.688 7.536,-6.188 9.5,-10.5 l -6,6 c -0.167,-0.333 -0.333,-0.667 -0.5,-1 8.961,-8.75 14.961,-19.25 18,-31.5 -0.259,-1.261 -0.926,-2.261 -2,-3 -2.982,-0.498 -5.982,-0.665 -9,-0.5 0.377,-1.758 1.044,-3.425 2,-5 -0.457,-0.798 -1.124,-1.131 -2,-1 z"
       fill="#55514a"
       opacity="0.998"
       id="path326" />
    <path
       d="m 680.5,902.5 c -19.304,41.557 -6.304,66.057 39,73.5 17.954,3.147 34.121,-0.686 48.5,-11.5 0.195,1.319 0.028,2.653 -0.5,4 -13.757,9.603 -29.091,13.103 -46,10.5 -8.651,-0.59 -16.984,-2.423 -25,-5.5 -9.002,-2.161 -16.336,-6.828 -22,-14 1.467,0.792 2.8,0.792 4,0 -2.317,-1.816 -4.484,-3.816 -6.5,-6 -3.338,-10.074 -4.338,-20.408 -3,-31 1.656,-8.101 5.489,-14.768 11.5,-20 z"
       fill="#dec190"
       id="path328" />
    <path
       d="m 810.5,927.5 c 0.876,-0.131 1.543,0.202 2,1 -0.956,1.575 -1.623,3.242 -2,5 -8.171,4.926 -15.838,10.592 -23,17 -4.922,0.39 -5.256,-0.777 -1,-3.5 -2.42,0.372 -4.42,1.705 -6,4 -1.249,0.74 -2.249,0.573 -3,-0.5 4.027,-4.694 8.36,-9.027 13,-13 0.79,-0.901 1.79,-1.568 3,-2 1.527,0.073 2.527,-0.594 3,-2 0,-0.667 0.333,-1 1,-1 3.981,-2.487 8.315,-4.154 13,-5 z"
       fill="#25221e"
       id="path330" />
    <path
       d="m 711.5,991.5 c -2.842,-0.672 -5.342,-2.006 -7.5,-4 -0.773,-1.852 -0.273,-3.186 1.5,-4 9.941,1.653 19.941,2.153 30,1.5 15.6,-4.089 30.6,-9.755 45,-17 4.369,-2.857 8.369,-6.19 12,-10 -0.594,-0.464 -1.261,-0.631 -2,-0.5 5.65,-6.14 12.317,-10.14 20,-12 -4.009,6.685 -8.509,13.018 -13.5,19 -14.485,13.161 -31.318,21.994 -50.5,26.5 -11.849,0.253 -23.516,0.419 -35,0.5 z"
       fill="#dbae64"
       id="path332" />
    <path
       d="m 722.5,853.5 c 0.787,1.604 2.12,2.271 4,2 -9.123,5.586 -17.123,12.586 -24,21 -6.819,6.959 -12.152,14.959 -16,24 -4.01,6.827 -7.176,14.161 -9.5,22 -4.466,16.942 0.367,30.442 14.5,40.5 23.287,11.226 46.954,12.226 71,3 4.504,-5.67 9.504,-10.837 15,-15.5 0.751,1.073 1.751,1.24 3,0.5 1.58,-2.295 3.58,-3.628 6,-4 -4.256,2.723 -3.922,3.89 1,3.5 -2.973,2.306 -5.64,4.973 -8,8 -3.708,3.71 -7.708,7.043 -12,10 0.528,-1.347 0.695,-2.681 0.5,-4 -14.379,10.814 -30.546,14.647 -48.5,11.5 -45.304,-7.443 -58.304,-31.943 -39,-73.5 2.013,-4.027 4.013,-8.027 6,-12 9.26,-14.928 21.26,-27.261 36,-37 z"
       fill="#514d45"
       opacity="0.998"
       id="path334" />
    <path
       d="m 665.5,947.5 c 1.538,3.399 3.371,6.733 5.5,10 0.816,1.323 1.983,1.989 3.5,2 5.664,7.172 12.998,11.839 22,14 3,3.333 6,6.667 9,10 -1.773,0.814 -2.273,2.148 -1.5,4 2.158,1.994 4.658,3.328 7.5,4 8.504,1.106 16.838,2.439 25,4 h -6 c -12.774,0.558 -25.44,-0.275 -38,-2.5 -9.949,-2.023 -15.116,-8.19 -15.5,-18.5 -0.49,2.045 -0.323,4.045 0.5,6 -4.555,-2.529 -9.055,-5.196 -13.5,-8 l -1,1 c -0.794,-8.953 0.039,-17.619 2.5,-26 z"
       fill="#dba143"
       id="path336" />
    <path
       d="m 790.5,957.5 c 0.739,-0.131 1.406,0.036 2,0.5 -3.631,3.81 -7.631,7.143 -12,10 -14.4,7.245 -29.4,12.911 -45,17 -10.059,0.653 -20.059,0.153 -30,-1.5 -3,-3.333 -6,-6.667 -9,-10 8.016,3.077 16.349,4.91 25,5.5 16.909,2.603 32.243,-0.897 46,-10.5 4.292,-2.957 8.292,-6.29 12,-10 0.65,0.304 1.317,0.637 2,1 2.045,-1.975 3.712,-1.975 5,0 1.122,-1.13 2.456,-1.797 4,-2 z"
       fill="#dca64f"
       id="path338" />
    <path
       d="m 730.5,995.5 c -1.452,0.802 -3.118,1.302 -5,1.5 -6.992,0.5 -13.992,0.666 -21,0.5 -8.301,0.009 -15.967,-1.991 -23,-6 -2.113,-3.334 -3.446,-7 -4,-11 -0.823,-1.955 -0.99,-3.955 -0.5,-6 0.384,10.31 5.551,16.477 15.5,18.5 12.56,2.225 25.226,3.058 38,2.5 z"
       fill="#d8b57d"
       id="path340" />
    <path
       d="m 779.5,983.5 c 0.739,-0.131 1.406,0.036 2,0.5 -0.752,0.671 -1.086,1.504 -1,2.5 -24.844,10.302 -50.511,15.3 -77,15 4.445,-0.22 8.778,-1.05 13,-2.5 -4.188,-0.176 -8.188,-0.676 -12,-1.5 7.008,0.166 14.008,0 21,-0.5 1.882,-0.198 3.548,-0.698 5,-1.5 h 6 c 14.632,-2.908 28.965,-6.908 43,-12 z"
       fill="#38342f"
       id="path342" />
  </g>
</svg>
